<?xml version="1.0" encoding="UTF-8" standalone="no"?>
<svg viewBox="0 0 200 200" xmlns="http://www.w3.org/2000/svg">
<defs>
<linearGradient gradientUnits="userSpaceOnUse" id="linearGradient3776" x2="0" y1="-6.1639" y2="120.79">
<stop offset="0" stop-color="#fff"/>
<stop offset="1" stop-color="#fff" stop-opacity="0"/>
</linearGradient>
</defs>
<title>Green Audio Icon</title>
<desc>Green audio spiker glossy icon</desc>
<path d="m8.1475,0h183.705a8.1475,8.1475 0 0,1 8.1475,8.1475v183.705a8.1475,8.1475 0 0,1 -8.1475,8.1475h-183.705a8.1475,8.1475 0 0,1 -8.1475-8.1475v-183.705a8.1475,8.1475 0 0,1 8.1475-8.1475" fill="#113f00"/>
<path d="m14.4688,9.9672h171.0668a4.5016,4.5016 0 0,1 4.5016,4.5016v171.0668a4.5016,4.5016 0 0,1 -4.5016,4.5016h-171.0668a4.5016,4.5016 0 0,1 -4.5016-4.5016v-171.0668a4.5016,4.5016 0 0,1 4.5016-4.5016" fill="#1e7100" stroke="#fff" stroke-width="2"/>
<path d="m8.1562,0c-4.5137,0-8.1562,3.6425-8.1562,8.1562v80.594c26.877,11.53 60.402,18.41 96.781,18.41 39.339,0 75.359-8.036 103.22-21.316v-77.688c0-4.5137-3.64-8.1562-8.16-8.1562h-183.68z" fill="url(#linearGradient3776)" opacity=".80345"/>
<path d="m105.75,43.755c-.80778-.002-1.7531.32503-2.6684,1.0855l-35.638,29.624c-1.5897,1.3207-2.2733,1.5377-4.4775,1.5377h-22.93c-3.1445,0-5.6534,2.5089-5.6534,5.6534v36.679c0,3.1445 2.5089,5.6534 5.6534,5.6534h22.93c2.2042,0 2.8878.21708 4.4775,1.5377l35.639,29.624c2.4408,2.0278 5.0654,1.0501 5.0654-1.3568v-107.6c0-1.5043-1.0507-2.4391-2.397-2.4423zm45.815,10.764-8.4122,8.4122c14.466,22.617 14.48,51.652 0,74.263l8.367,8.3218c18.773-27.381 18.809-63.612.0451-90.997zm-20.307,20.262-8.2766,8.3218c7.5308,10.088 7.5308,23.832 0,33.92l8.2313,8.2313c11.925-14.663 11.958-35.804.0451-50.474z" fill="#fff"/>
</svg>
