<?xml version="1.0" encoding="utf-8"?>
<!-- Generator: Adobe Illustrator 19.2.0, SVG Export Plug-In . SVG Version: 6.00 Build 0)  -->
<svg version="1.1" id="レイヤー_1" xmlns="http://www.w3.org/2000/svg" xmlns:xlink="http://www.w3.org/1999/xlink" x="0px"
	 y="0px" viewBox="0 0 102.4 110" style="enable-background:new 0 0 102.4 110;" xml:space="preserve">
<style type="text/css">
	.st0{fill:#C3221F;}
</style>
<g>
	<g>
		<path class="st0" d="M51.2,85c-12.7,0.7-27.6-2.9-34.6-14.5C8,56.2,15.9,39,27.7,29.4c12.4-10.1,30.9-16.6,45.4-7.3
			c13.2,8.5,19.4,24.8,14.7,39.8c-5.3,16.9-23,24.7-37.9,31.3c-5.9,2.6-0.8,11.2,5,8.6C72.2,94.3,90.2,85,96.9,66.1
			c6.6-18.4-0.4-38.9-15.8-50.5C49-8.8-7.6,28.4,4.6,68.1c6,19.6,27.6,28,46.6,26.9C57.6,94.7,57.6,84.7,51.2,85L51.2,85z"/>
	</g>
</g>
</svg>
