<?xml version="1.0" encoding="utf-8"?>
<!-- Generator: Adobe Illustrator 19.2.0, SVG Export Plug-In . SVG Version: 6.00 Build 0)  -->
<svg version="1.1" xmlns="http://www.w3.org/2000/svg" xmlns:xlink="http://www.w3.org/1999/xlink" x="0px" y="0px"
	 viewBox="0 0 102.4 110" style="enable-background:new 0 0 102.4 110;" xml:space="preserve">
<style type="text/css">
	.st0{fill:#C3221F;}
	.st1{fill:#17469C;}
</style>
<g id="レイヤー_2">
</g>
<g id="レイヤー_1">
	<g>
		<g>
			<g>
				<path class="st1" d="M28.7,32.7c0.2-0.2,0.3-0.5,0.5-0.7c-1.5,1.1-3,2.3-4.5,3.4c0.3-0.1,0.6-0.1,0.9-0.2c-1.3,0-2.7,0-4,0
					c1.9,0.4,4.2,2.8,5.7,4.1c2.3,1.9,4.5,3.9,6.6,5.9c4.3,4.1,8.3,8.4,12.4,12.8c8.2,8.7,16.6,17.1,26.5,23.9
					c8,5.4,15.5-7.5,7.6-13c-11.7-8-20.9-19-30.8-29.2C43,32.9,24.8,11.6,15.8,25.1C10.4,33.2,23.4,40.7,28.7,32.7L28.7,32.7z"/>
			</g>
		</g>
		<g>
			<g>
				<path class="st1" d="M29.7,86.9c7.5-10.2,16.8-19.1,25.9-27.9c9.5-9.3,18.9-18.5,30.2-25.6c8.2-5.1,0.6-18.1-7.6-13
					C65.8,28.2,55.4,38.1,45,48.3c-10,9.8-19.9,19.7-28.2,31c-2.4,3.3-0.5,8.3,2.7,10.3C23.2,91.8,27.3,90.1,29.7,86.9L29.7,86.9z"
					/>
			</g>
		</g>
	</g>
</g>
</svg>
