<?xml version="1.0" encoding="UTF-8" standalone="no"?>
<svg
   xmlns:dc="http://purl.org/dc/elements/1.1/"
   xmlns:cc="http://creativecommons.org/ns#"
   xmlns:rdf="http://www.w3.org/1999/02/22-rdf-syntax-ns#"
   xmlns:svg="http://www.w3.org/2000/svg"
   xmlns="http://www.w3.org/2000/svg"
   xmlns:sodipodi="http://sodipodi.sourceforge.net/DTD/sodipodi-0.dtd"
   xmlns:inkscape="http://www.inkscape.org/namespaces/inkscape"
   width="332"
   height="434"
   id="svg2"
   version="1.1"
   inkscape:version="0.91 r13725"
   sodipodi:docname="bird.svg">
  <metadata
     id="metadata20">
    <rdf:RDF>
      <cc:Work
         rdf:about="">
        <dc:format>image/svg+xml</dc:format>
        <dc:type
           rdf:resource="http://purl.org/dc/dcmitype/StillImage" />
        <dc:title></dc:title>
      </cc:Work>
    </rdf:RDF>
  </metadata>
  <defs
     id="defs18">
    <filter
       id="filter4138-8"
       x="-0.1"
       y="-0.1"
       width="1.2"
       height="1.2"
       style="color-interpolation-filters:sRGB">
      <feTurbulence
         id="feTurbulence4140-8"
         result="result1"
         numOctaves="3"
         baseFrequency="1"
         type="fractalNoise"
         seed="50" />
      <feColorMatrix
         id="feColorMatrix4142-7"
         result="result0"
         in="SourceGraphic"
         type="luminanceToAlpha" />
      <feColorMatrix
         id="feColorMatrix4144-5"
         values="1 0 0 0 0 0 1 0 0 0 0 0 1 0 0 0 0 0 0.5 0 "
         result="result2" />
      <feComposite
         id="feComposite4146-9"
         in2="result2"
         in="result1"
         operator="over"
         result="result3" />
      <feColorMatrix
         id="feColorMatrix4148-5"
         values="1 0 0 0 0 0 1 0 0 0 0 0 1 0 0 0 0 0 5 -3.2"
         result="result91" />
      <feComposite
         id="feComposite4150-7"
         result="result93"
         k1="1.5"
         operator="arithmetic"
         in2="result91"
         k2="0"
         k3="0"
         k4="0" />
      <feComposite
         id="feComposite4152-4"
         result="result4"
         operator="out"
         in="SourceGraphic"
         in2="result93" />
      <feComposite
         id="feComposite4154-9"
         k1="1"
         k2="0.5"
         operator="arithmetic"
         in2="result4"
         k3="0"
         k4="0" />
      <feDisplacementMap
         id="feDisplacementMap4156-3"
         result="result92"
         in2="result1"
         yChannelSelector="A"
         xChannelSelector="R"
         scale="15" />
    </filter>
    <filter
       id="filter4138-8-4"
       x="-0.1"
       y="-0.1"
       width="1.2"
       height="1.2"
       style="color-interpolation-filters:sRGB">
      <feTurbulence
         id="feTurbulence4140-8-1"
         result="result1"
         numOctaves="3"
         baseFrequency="1"
         type="fractalNoise"
         seed="50" />
      <feColorMatrix
         id="feColorMatrix4142-7-1"
         result="result0"
         in="SourceGraphic"
         type="luminanceToAlpha" />
      <feColorMatrix
         id="feColorMatrix4144-5-3"
         values="1 0 0 0 0 0 1 0 0 0 0 0 1 0 0 0 0 0 0.5 0 "
         result="result2" />
      <feComposite
         id="feComposite4146-9-1"
         in2="result2"
         in="result1"
         operator="over"
         result="result3" />
      <feColorMatrix
         id="feColorMatrix4148-5-3"
         values="1 0 0 0 0 0 1 0 0 0 0 0 1 0 0 0 0 0 5 -3.2"
         result="result91" />
      <feComposite
         id="feComposite4150-7-6"
         result="result93"
         k1="1.5"
         operator="arithmetic"
         in2="result91"
         k2="0"
         k3="0"
         k4="0" />
      <feComposite
         id="feComposite4152-4-1"
         result="result4"
         operator="out"
         in="SourceGraphic"
         in2="result93" />
      <feComposite
         id="feComposite4154-9-4"
         k1="1"
         k2="0.5"
         operator="arithmetic"
         in2="result4"
         k3="0"
         k4="0" />
      <feDisplacementMap
         id="feDisplacementMap4156-3-5"
         result="result92"
         in2="result1"
         yChannelSelector="A"
         xChannelSelector="R"
         scale="15" />
    </filter>
    <filter
       id="filter4138"
       x="-0.1"
       y="-0.1"
       width="1.2"
       height="1.2"
       style="color-interpolation-filters:sRGB">
      <feTurbulence
         id="feTurbulence4140"
         result="result1"
         numOctaves="3"
         baseFrequency="1"
         type="fractalNoise"
         seed="50" />
      <feColorMatrix
         id="feColorMatrix4142"
         result="result0"
         in="SourceGraphic"
         type="luminanceToAlpha" />
      <feColorMatrix
         id="feColorMatrix4144"
         values="1 0 0 0 0 0 1 0 0 0 0 0 1 0 0 0 0 0 0.5 0 "
         result="result2" />
      <feComposite
         id="feComposite4146"
         in2="result2"
         in="result1"
         operator="over"
         result="result3" />
      <feColorMatrix
         id="feColorMatrix4148"
         values="1 0 0 0 0 0 1 0 0 0 0 0 1 0 0 0 0 0 5 -3.2"
         result="result91" />
      <feComposite
         id="feComposite4150"
         result="result93"
         k1="1.5"
         operator="arithmetic"
         in2="result91"
         k2="0"
         k3="0"
         k4="0" />
      <feComposite
         id="feComposite4152"
         result="result4"
         operator="out"
         in="SourceGraphic"
         in2="result93" />
      <feComposite
         id="feComposite4154"
         k1="1"
         k2="0.5"
         operator="arithmetic"
         in2="result4"
         k3="0"
         k4="0" />
      <feDisplacementMap
         id="feDisplacementMap4156"
         result="result92"
         in2="result1"
         yChannelSelector="A"
         xChannelSelector="R"
         scale="15" />
    </filter>
    <filter
       id="filter4138-4"
       x="-0.1"
       y="-0.1"
       width="1.2"
       height="1.2"
       style="color-interpolation-filters:sRGB">
      <feTurbulence
         id="feTurbulence4140-9"
         result="result1"
         numOctaves="3"
         baseFrequency="1"
         type="fractalNoise"
         seed="50" />
      <feColorMatrix
         id="feColorMatrix4142-72"
         result="result0"
         in="SourceGraphic"
         type="luminanceToAlpha" />
      <feColorMatrix
         id="feColorMatrix4144-8"
         values="1 0 0 0 0 0 1 0 0 0 0 0 1 0 0 0 0 0 0.5 0 "
         result="result2" />
      <feComposite
         id="feComposite4146-93"
         in2="result2"
         in="result1"
         operator="over"
         result="result3" />
      <feColorMatrix
         id="feColorMatrix4148-9"
         values="1 0 0 0 0 0 1 0 0 0 0 0 1 0 0 0 0 0 5 -3.2"
         result="result91" />
      <feComposite
         id="feComposite4150-6"
         result="result93"
         k1="1.5"
         operator="arithmetic"
         in2="result91"
         k2="0"
         k3="0"
         k4="0" />
      <feComposite
         id="feComposite4152-9"
         result="result4"
         operator="out"
         in="SourceGraphic"
         in2="result93" />
      <feComposite
         id="feComposite4154-6"
         k1="1"
         k2="0.5"
         operator="arithmetic"
         in2="result4"
         k3="0"
         k4="0" />
      <feDisplacementMap
         id="feDisplacementMap4156-8"
         result="result92"
         in2="result1"
         yChannelSelector="A"
         xChannelSelector="R"
         scale="15" />
    </filter>
  </defs>
  <sodipodi:namedview
     pagecolor="#ffffff"
     bordercolor="#666666"
     borderopacity="1"
     objecttolerance="10"
     gridtolerance="10"
     guidetolerance="10"
     inkscape:pageopacity="0"
     inkscape:pageshadow="2"
     inkscape:window-width="1291"
     inkscape:window-height="795"
     id="namedview16"
     showgrid="false"
     inkscape:zoom="1.2808977"
     inkscape:cx="212.26165"
     inkscape:cy="215.96928"
     inkscape:window-x="12"
     inkscape:window-y="53"
     inkscape:window-maximized="0"
     inkscape:current-layer="svg2"
     fit-margin-top="0"
     fit-margin-left="0"
     fit-margin-right="0"
     fit-margin-bottom="0" />
  <g
     id="g4278"
     transform="translate(-33.421883,4.6530993)">
    <rect
       y="-1.4631635"
       x="44.286201"
       height="424"
       width="317.41281"
       id="rect4450"
       style="opacity:1;fill:#ffffff;fill-opacity:1;fill-rule:nonzero;stroke:none;stroke-width:7.99999952;stroke-miterlimit:4;stroke-dasharray:none;stroke-opacity:1" />
    <g
       transform="matrix(0.52334098,0,0,0.51547408,8.6393114,-56.678842)"
       id="g4403">
      <rect
         transform="matrix(0.99815136,0,0,0.25546737,7.8004281,-25.859884)"
         y="498.07648"
         x="40"
         height="97.14286"
         width="631.42859"
         id="rect4136-0"
         style="opacity:1;fill:#ffdd55;fill-opacity:1;fill-rule:nonzero;stroke:none;stroke-width:3.79866695;stroke-miterlimit:4;stroke-dasharray:none;stroke-opacity:1;filter:url(#filter4138-8)" />
      <rect
         transform="matrix(0.99815136,0,0,0.25546737,10.65756,789.85436)"
         y="498.07648"
         x="40"
         height="97.14286"
         width="631.42859"
         id="rect4136-0-4"
         style="opacity:1;fill:#ffdd55;fill-opacity:1;fill-rule:nonzero;stroke:none;stroke-width:3.79866695;stroke-miterlimit:4;stroke-dasharray:none;stroke-opacity:1;filter:url(#filter4138-8-4)" />
      <g
         id="g4368">
        <rect
           style="opacity:1;fill:#ffdd55;fill-opacity:1;fill-rule:nonzero;stroke:none;stroke-width:3.79866695;stroke-miterlimit:4;stroke-dasharray:none;stroke-opacity:1;filter:url(#filter4138)"
           id="rect4136"
           width="631.42859"
           height="97.14286"
           x="40"
           y="498.07648"
           transform="matrix(0.04226428,0,0,8.3623635,42.108877,-4044.6205)" />
        <rect
           style="opacity:1;fill:#ffdd55;fill-opacity:1;fill-rule:nonzero;stroke:none;stroke-width:3.79866695;stroke-miterlimit:4;stroke-dasharray:none;stroke-opacity:1;filter:url(#filter4138-4)"
           id="rect4136-5"
           width="631.42859"
           height="97.14286"
           x="40"
           y="498.07648"
           transform="matrix(0.04226428,0,0,8.3623635,656.39457,-4044.6206)" />
      </g>
    </g>
  </g>
  <g
     transform="matrix(0.66979688,0,0,0.68173956,-321.63474,-197.4395)"
     id="g4">
    <path
       d="m 709.48967,634.35681 c -52.17885,58.11939 -79.27614,133.2814 -157.54863,150.42415 36.4839,-51.17722 59.83063,-84.05799 84.50678,-138.70196 -19.36364,50.56935 -30.94982,101.50808 -86.01009,107.61531 27.34314,-41.79576 52.72098,-67.76348 68.55074,-114.73024 l 92.25562,-8.28242 z"
       id="path6"
       inkscape:connector-curvature="0"
       style="fill:#174d7c" />
    <path
       d="m 401.76105,223.09731 c 0,43.1446 -49.70217,78.1202 -111.01291,78.1202 -61.31074,0 -111.01292,-34.9756 -111.01292,-78.1202 0,-43.1446 49.70218,-78.12021 111.01292,-78.12021 60.52141,0 109.89052,34.11321 110.99445,76.69527"
       transform="matrix(1.06096,0,0,2.29716,390.10601,92.77803)"
       id="path8"
       inkscape:connector-curvature="0"
       style="fill:#ffffff;fill-opacity:0.65959999" />
    <path
       d="m 695.07836,421.0117 0,0.0312 c -55.4427,1.63681 -92.67309,46.87959 -119.125,151.375 -27.49898,108.63176 -49.32012,203.72509 119.125,214.84375 0.78005,0.0322 0.88457,0.0417 1.59375,0 168.4451,-11.11856 146.62398,-106.21192 119.125,-214.84371 -26.45191,-104.4954 -63.6823,-149.73819 -119.125,-151.375 -0.53961,-0.024 -1.08983,-0.0257 -1.59375,-0.0312 z"
       id="path10"
       inkscape:connector-curvature="0"
       style="fill:#45aaff" />
    <path
       d="m 668.02162,770.23668 -6.19219,-0.85343 -5.20968,51.6244 c -76.6164,-44.87818 -80.467,1.20229 -78.9459,14.96852 34.26202,-2.44101 61.63209,3.38829 90.23257,7.74113 z"
       id="path12"
       inkscape:connector-curvature="0"
       style="fill:#ffa200" />
    <path
       d="m 748.89629,770.23668 6.19219,-0.85343 5.20968,51.6244 c 62.74214,-33.63662 74.39692,-15.02653 78.9459,14.96852 -34.26202,-2.44101 -61.63209,3.38829 -90.23257,7.74113 z"
       id="path14"
       inkscape:connector-curvature="0"
       style="fill:#ffa200" />
    <path
       d="m 740.85608,457.1055 c -31.39179,9.25779 -35.13717,71.29964 29.01,66.4556 -5.49074,-3.34244 -28.65227,-15.17362 -29.81825,-27.40167 26.04471,13.84883 58.61525,19.24585 92.45728,18.88614 4.4981,-20.20497 -39.30122,-77.59311 -91.64903,-57.94007 z"
       id="path16"
       inkscape:connector-curvature="0"
       style="fill:#ffa200" />
    <path
       d="m 654.40204,470.21345 c 28.46143,-22.59125 50.37376,-13.25383 49.05964,7.36107 -1.56922,11.45711 -22.18228,18.461 -49.05964,-7.36107 z"
       id="path18"
       inkscape:connector-curvature="0"
       style="fill:#ffffff" />
    <path
       d="m 640.82108,362.3125 c 11.59349,16.52564 28.92468,26.38991 30.0625,48.53125 -17.29172,-20.07254 -36.83917,-32.60573 -59.3125,-35.40625 10.14742,15.73608 21.54074,18.05652 30.15625,43.75 -52.16,-6.74743 -76.05556,37.34693 -108.21875,66.59375 35.97596,-15.82105 73.53188,-32.06916 93.65625,-43.71875 -46.3587,68.68667 -73.28604,161.38415 -70.03125,239.5 28.51729,-4.22738 56.80868,-7.74568 72.875,-36.875 0.50929,-12.71032 2.78496,-15.28616 9.97245,-23.98517 -1.04602,-9.28341 -7.557,-19.34942 -17.97901,-4.94057 1.57996,-11.37968 5.27309,-8.83333 8.75406,-16.07867 -2.4624,-5.22898 -5.97164,-24.0376 -27.435,6.00441 5.1898,-24.08181 16.00212,-45.03225 26.3125,-62.1875 -11.35828,0.44024 -30.65924,15.10385 -41.8125,48.8125 -3.89696,-95.02156 55.05004,-187.31833 150.8125,-159.53125 -4.41703,-21.87304 -28.07446,-44.7724 -58.375,-61.46875 12.35096,18.24151 15.05404,26.3957 18.71875,46.8125 -7.5992,-35.94503 -35.07547,-42.69772 -58.15625,-55.8125 z"
       id="path20"
       inkscape:connector-curvature="0"
       style="fill:#174d7c" />
    <path
       d="m 812.02255,558.04637 c 12.47773,33.15558 17.0313,58.48789 39.57159,102.05916 37.33088,3.16561 49.15971,26.16616 70.66404,41.64131 -23.8294,-9.51979 -48.07822,-20.08814 -68.14033,-20.18972 22.64437,12.17734 29.49222,33.38126 39.1176,52.99803 -16.51414,-24.74207 -33.31118,-30.05565 -47.9506,-36.59388 16.54392,17.85883 23.0253,36.9755 23.9753,56.78359 -14.83339,-22.97406 -31.62141,-41.9393 -46.68874,-52.99804 -20.37839,-39.4545 -3.00915,-95.49091 -10.54886,-143.70047 z"
       id="path22"
       inkscape:connector-curvature="0"
       style="fill:#174d7c" />
    <path
       d="m 574.8898,234.2995 c 0,7.94703 -8.4364,14.38937 -18.84323,14.38937 -10.40683,0 -18.84323,-6.44234 -18.84323,-14.38937 0,-7.94703 8.4364,-14.38938 18.84323,-14.38938 10.40683,0 18.84323,6.44235 18.84323,14.38938 z"
       transform="matrix(0.69562,0,0,0.69562,297.58797,309.10831)"
       id="path24"
       inkscape:connector-curvature="0"
       style="fill:#174d7c" />
    <path
       d="m 575.50239,178.86891 c 0,3.28595 -3.39028,5.94974 -7.5724,5.94974 -4.18212,0 -7.5724,-2.66379 -7.5724,-5.94974 0,-3.28595 3.39028,-5.94974 7.5724,-5.94974 4.12828,0 7.49584,2.59811 7.57114,5.84122"
       transform="matrix(0.63836,0,0,0.79705,330.58765,330.91966)"
       id="path26"
       inkscape:connector-curvature="0"
       style="fill:#ffffff" />
  </g>
</svg>
