<?xml version="1.0" encoding="UTF-8" standalone="no"?>
<svg
   xmlns:dc="http://purl.org/dc/elements/1.1/"
   xmlns:cc="http://creativecommons.org/ns#"
   xmlns:rdf="http://www.w3.org/1999/02/22-rdf-syntax-ns#"
   xmlns:svg="http://www.w3.org/2000/svg"
   xmlns="http://www.w3.org/2000/svg"
   xmlns:xlink="http://www.w3.org/1999/xlink"
   xmlns:sodipodi="http://sodipodi.sourceforge.net/DTD/sodipodi-0.dtd"
   xmlns:inkscape="http://www.inkscape.org/namespaces/inkscape"
   width="332"
   height="434"
   id="svg2"
   version="1.1"
   inkscape:version="0.91 r13725"
   sodipodi:docname="horse.svg">
  <metadata
     id="metadata20">
    <rdf:RDF>
      <cc:Work
         rdf:about="">
        <dc:format>image/svg+xml</dc:format>
        <dc:type
           rdf:resource="http://purl.org/dc/dcmitype/StillImage" />
        <dc:title></dc:title>
      </cc:Work>
    </rdf:RDF>
  </metadata>
  <defs
     id="defs18">
    <filter
       id="filter4138-8"
       x="-0.1"
       y="-0.1"
       width="1.2"
       height="1.2"
       style="color-interpolation-filters:sRGB">
      <feTurbulence
         id="feTurbulence4140-8"
         result="result1"
         numOctaves="3"
         baseFrequency="1"
         type="fractalNoise"
         seed="50" />
      <feColorMatrix
         id="feColorMatrix4142-7"
         result="result0"
         in="SourceGraphic"
         type="luminanceToAlpha" />
      <feColorMatrix
         id="feColorMatrix4144-5"
         values="1 0 0 0 0 0 1 0 0 0 0 0 1 0 0 0 0 0 0.5 0 "
         result="result2" />
      <feComposite
         id="feComposite4146-9"
         in2="result2"
         in="result1"
         operator="over"
         result="result3" />
      <feColorMatrix
         id="feColorMatrix4148-5"
         values="1 0 0 0 0 0 1 0 0 0 0 0 1 0 0 0 0 0 5 -3.2"
         result="result91" />
      <feComposite
         id="feComposite4150-7"
         result="result93"
         k1="1.5"
         operator="arithmetic"
         in2="result91"
         k2="0"
         k3="0"
         k4="0" />
      <feComposite
         id="feComposite4152-4"
         result="result4"
         operator="out"
         in="SourceGraphic"
         in2="result93" />
      <feComposite
         id="feComposite4154-9"
         k1="1"
         k2="0.5"
         operator="arithmetic"
         in2="result4"
         k3="0"
         k4="0" />
      <feDisplacementMap
         id="feDisplacementMap4156-3"
         result="result92"
         in2="result1"
         yChannelSelector="A"
         xChannelSelector="R"
         scale="15" />
    </filter>
    <filter
       id="filter4138-8-4"
       x="-0.1"
       y="-0.1"
       width="1.2"
       height="1.2"
       style="color-interpolation-filters:sRGB">
      <feTurbulence
         id="feTurbulence4140-8-1"
         result="result1"
         numOctaves="3"
         baseFrequency="1"
         type="fractalNoise"
         seed="50" />
      <feColorMatrix
         id="feColorMatrix4142-7-1"
         result="result0"
         in="SourceGraphic"
         type="luminanceToAlpha" />
      <feColorMatrix
         id="feColorMatrix4144-5-3"
         values="1 0 0 0 0 0 1 0 0 0 0 0 1 0 0 0 0 0 0.5 0 "
         result="result2" />
      <feComposite
         id="feComposite4146-9-1"
         in2="result2"
         in="result1"
         operator="over"
         result="result3" />
      <feColorMatrix
         id="feColorMatrix4148-5-3"
         values="1 0 0 0 0 0 1 0 0 0 0 0 1 0 0 0 0 0 5 -3.2"
         result="result91" />
      <feComposite
         id="feComposite4150-7-6"
         result="result93"
         k1="1.5"
         operator="arithmetic"
         in2="result91"
         k2="0"
         k3="0"
         k4="0" />
      <feComposite
         id="feComposite4152-4-1"
         result="result4"
         operator="out"
         in="SourceGraphic"
         in2="result93" />
      <feComposite
         id="feComposite4154-9-4"
         k1="1"
         k2="0.5"
         operator="arithmetic"
         in2="result4"
         k3="0"
         k4="0" />
      <feDisplacementMap
         id="feDisplacementMap4156-3-5"
         result="result92"
         in2="result1"
         yChannelSelector="A"
         xChannelSelector="R"
         scale="15" />
    </filter>
    <filter
       id="filter4138"
       x="-0.1"
       y="-0.1"
       width="1.2"
       height="1.2"
       style="color-interpolation-filters:sRGB">
      <feTurbulence
         id="feTurbulence4140"
         result="result1"
         numOctaves="3"
         baseFrequency="1"
         type="fractalNoise"
         seed="50" />
      <feColorMatrix
         id="feColorMatrix4142"
         result="result0"
         in="SourceGraphic"
         type="luminanceToAlpha" />
      <feColorMatrix
         id="feColorMatrix4144"
         values="1 0 0 0 0 0 1 0 0 0 0 0 1 0 0 0 0 0 0.5 0 "
         result="result2" />
      <feComposite
         id="feComposite4146"
         in2="result2"
         in="result1"
         operator="over"
         result="result3" />
      <feColorMatrix
         id="feColorMatrix4148"
         values="1 0 0 0 0 0 1 0 0 0 0 0 1 0 0 0 0 0 5 -3.2"
         result="result91" />
      <feComposite
         id="feComposite4150"
         result="result93"
         k1="1.5"
         operator="arithmetic"
         in2="result91"
         k2="0"
         k3="0"
         k4="0" />
      <feComposite
         id="feComposite4152"
         result="result4"
         operator="out"
         in="SourceGraphic"
         in2="result93" />
      <feComposite
         id="feComposite4154"
         k1="1"
         k2="0.5"
         operator="arithmetic"
         in2="result4"
         k3="0"
         k4="0" />
      <feDisplacementMap
         id="feDisplacementMap4156"
         result="result92"
         in2="result1"
         yChannelSelector="A"
         xChannelSelector="R"
         scale="15" />
    </filter>
    <filter
       id="filter4138-4"
       x="-0.1"
       y="-0.1"
       width="1.2"
       height="1.2"
       style="color-interpolation-filters:sRGB">
      <feTurbulence
         id="feTurbulence4140-9"
         result="result1"
         numOctaves="3"
         baseFrequency="1"
         type="fractalNoise"
         seed="50" />
      <feColorMatrix
         id="feColorMatrix4142-72"
         result="result0"
         in="SourceGraphic"
         type="luminanceToAlpha" />
      <feColorMatrix
         id="feColorMatrix4144-8"
         values="1 0 0 0 0 0 1 0 0 0 0 0 1 0 0 0 0 0 0.5 0 "
         result="result2" />
      <feComposite
         id="feComposite4146-93"
         in2="result2"
         in="result1"
         operator="over"
         result="result3" />
      <feColorMatrix
         id="feColorMatrix4148-9"
         values="1 0 0 0 0 0 1 0 0 0 0 0 1 0 0 0 0 0 5 -3.2"
         result="result91" />
      <feComposite
         id="feComposite4150-6"
         result="result93"
         k1="1.5"
         operator="arithmetic"
         in2="result91"
         k2="0"
         k3="0"
         k4="0" />
      <feComposite
         id="feComposite4152-9"
         result="result4"
         operator="out"
         in="SourceGraphic"
         in2="result93" />
      <feComposite
         id="feComposite4154-6"
         k1="1"
         k2="0.5"
         operator="arithmetic"
         in2="result4"
         k3="0"
         k4="0" />
      <feDisplacementMap
         id="feDisplacementMap4156-8"
         result="result92"
         in2="result1"
         yChannelSelector="A"
         xChannelSelector="R"
         scale="15" />
    </filter>
    <clipPath
       id="clipPath3683">
      <path
         inkscape:connector-curvature="0"
         id="path40-0"
         d="m 248.974,113.099 12.447,0 0,-19.4291 -12.447,0 0,19.4291 z" />
    </clipPath>
    <clipPath
       id="clipPath3703">
      <path
         inkscape:connector-curvature="0"
         id="path37-0"
         d="m 261.257,79.6387 5.806,0 0,-8.6084 -5.806,0 0,8.6084 z" />
    </clipPath>
    <clipPath
       id="clipPath3719">
      <path
         inkscape:connector-curvature="0"
         id="path34-4"
         d="m 262.325,69.833 3.153,0 0,-3.1523 -3.153,0 0,3.1523 z" />
    </clipPath>
    <clipPath
       id="clipPath3739">
      <path
         inkscape:connector-curvature="0"
         id="path31-3"
         d="m 293.42,79.6387 5.806,0 0,-8.6084 -5.806,0 0,8.6084 z" />
    </clipPath>
    <clipPath
       id="clipPath3755">
      <path
         inkscape:connector-curvature="0"
         id="path28-7"
         d="m 294.489,69.833 3.152,0 0,-3.1523 -3.152,0 0,3.1523 z" />
    </clipPath>
    <clipPath
       id="clipPath3771">
      <path
         inkscape:connector-curvature="0"
         id="path25-1"
         d="m 280.582,58.7637 3.656,0 0,-9.2285 -3.656,0 0,9.2285 z" />
    </clipPath>
    <clipPath
       id="clipPath3791">
      <path
         inkscape:connector-curvature="0"
         id="path22-9"
         d="m 222.104,108.127 14.438,0 0,-22.1348 -14.438,0 0,22.1348 z" />
    </clipPath>
    <clipPath
       id="clipPath3807">
      <path
         inkscape:connector-curvature="0"
         id="path19-2"
         d="m 233.618,71.3477 8.08,0 0,-9.7227 -8.08,0 0,9.7227 z" />
    </clipPath>
    <clipPath
       id="clipPath3823">
      <path
         inkscape:connector-curvature="0"
         id="path16-2"
         d="m 235.105,50.6084 6.292,0 0,-6.9043 -6.292,0 0,6.9043 z" />
    </clipPath>
    <clipPath
       id="clipPath3839">
      <path
         inkscape:connector-curvature="0"
         id="path13-4"
         d="m 240.804,44.6299 22.052,0 0,-27.4121 -22.052,0 0,27.4121 z" />
    </clipPath>
    <clipPath
       id="clipPath3855">
      <path
         inkscape:connector-curvature="0"
         id="path10-8"
         d="m 235.568,61.5654 7.432,0 0,-7.9189 -7.432,0 0,7.9189 z" />
    </clipPath>
    <clipPath
       id="clipPath3871">
      <path
         inkscape:connector-curvature="0"
         id="path7-6"
         d="m 236.299,93.3604 17.909,0 0,-22.6583 -17.909,0 0,22.6583 z" />
    </clipPath>
    <radialGradient
       r="61.9286"
       id="radialGradient3090"
       gradientUnits="userSpaceOnUse"
       gradientTransform="matrix(1,0,0,1.36909,0,-73.63508)"
       cy="199.505"
       cx="178.5714">
      <stop
         id="stop22"
         offset="0" />
      <stop
         id="stop24"
         stop-opacity="0"
         offset="1" />
    </radialGradient>
    <filter
       y="-0.14480001"
       x="-0.16339999"
       width="1.3267"
       id="filter5029"
       height="1.2896">
      <feGaussianBlur
         id="feGaussianBlur7"
         stdDeviation="9.413" />
    </filter>
    <filter
       y="-0.1053"
       x="-0.13950001"
       width="1.279"
       id="filter5035"
       height="1.2106">
      <feGaussianBlur
         id="feGaussianBlur10"
         stdDeviation="7.305" />
    </filter>
    <filter
       y="-0.1053"
       x="-0.13950001"
       width="1.279"
       id="filter4355"
       height="1.2106">
      <feGaussianBlur
         id="feGaussianBlur4357"
         stdDeviation="7.305" />
    </filter>
    <filter
       y="-0.1124"
       x="-0.1287"
       width="1.2573"
       id="filter5059"
       height="1.2249">
      <feGaussianBlur
         id="feGaussianBlur13"
         stdDeviation="7.359" />
    </filter>
    <filter
       y="-0.2264"
       x="-0.2489"
       width="1.4978"
       id="filter5069"
       height="1.4529001">
      <feGaussianBlur
         id="feGaussianBlur16"
         stdDeviation="14.662" />
    </filter>
    <filter
       y="-0.21780001"
       x="-0.26440001"
       width="1.5288"
       id="filter5087"
       height="1.4355">
      <feGaussianBlur
         id="feGaussianBlur19"
         stdDeviation="14.612" />
    </filter>
    <linearGradient
       y2="477.66312"
       y1="186.72581"
       x2="352.67099"
       x1="360.19147"
       id="linearGradient5343"
       gradientUnits="userSpaceOnUse"
       gradientTransform="matrix(2.48619,-2.30059,2.61564,2.48619,-1436.2476,-414.48179)">
      <stop
         id="stop7-9"
         stop-color="#808080"
         offset="0" />
      <stop
         id="stop9-3"
         stop-opacity="0"
         stop-color="#808080"
         offset="1" />
    </linearGradient>
    <linearGradient
       y2="302.50848"
       y1="603.22272"
       x2="0"
       id="linearGradient5345"
       gradientUnits="userSpaceOnUse"
       gradientTransform="matrix(2.48619,-2.45306,2.45306,2.48619,-1378.1875,-456.68505)">
      <stop
         id="stop12"
         stop-color="#fff9f9"
         offset="0" />
      <stop
         id="stop14"
         stop-opacity=".749"
         offset=".3251" />
      <stop
         id="stop16"
         stop-opacity=".498"
         offset=".7513" />
      <stop
         id="stop18"
         stop-opacity="0"
         offset="1" />
    </linearGradient>
    <linearGradient
       y2="603.22272"
       y1="302.50848"
       x2="0"
       id="linearGradient5347"
       gradientUnits="userSpaceOnUse"
       gradientTransform="matrix(2.48619,-2.45306,2.45306,2.48619,-1378.1875,-456.68505)">
      <stop
         id="stop21"
         offset="0" />
      <stop
         id="stop23"
         stop-opacity="0"
         offset="1" />
    </linearGradient>
    <radialGradient
       r="247.53943"
       id="radialGradient5349"
       gradientUnits="userSpaceOnUse"
       gradientTransform="matrix(0.93945,-7.8611953e-8,2.8670644e-8,0.36248,-141.8888,-98.64365)"
       cy="656.4552"
       cx="324.94135">
      <stop
         id="stop44"
         stop-color="#ccfc1c"
         offset="0" />
      <stop
         id="stop46"
         stop-opacity="0"
         stop-color="#ccfc1c"
         offset="1" />
    </radialGradient>
    <linearGradient
       xlink:href="#linearGradient5351"
       id="linearGradient4289"
       gradientUnits="userSpaceOnUse"
       gradientTransform="matrix(0.65303,-1.0093258e-8,1.0093258e-8,0.65303,-48.81909,-153.51503)"
       x1="-68.831429"
       x2="671.59937" />
    <linearGradient
       x2="671.59937"
       x1="-68.831429"
       id="linearGradient5351"
       gradientUnits="userSpaceOnUse"
       gradientTransform="matrix(0.65303,-1.0093258e-8,1.0093258e-8,0.65303,-48.81909,-153.51503)">
      <stop
         id="stop26"
         stop-color="#808080"
         offset="0" />
      <stop
         id="stop28"
         stop-opacity=".8078"
         stop-color="#efefef"
         offset=".5452" />
      <stop
         id="stop30"
         stop-opacity=".6863"
         stop-color="#808080"
         offset="1" />
      <stop
         id="stop32"
         stop-opacity=".498"
         stop-color="#808080"
         offset="1" />
    </linearGradient>
    <linearGradient
       x2="459.52502"
       x1="325.7702"
       id="linearGradient5353"
       gradientUnits="userSpaceOnUse"
       gradientTransform="matrix(2.28277,-2.5441479e-8,3.4593465e-8,2.98166,-701.60077,-683.39007)">
      <stop
         id="stop35"
         offset="0" />
      <stop
         id="stop37"
         stop-opacity=".749"
         stop-color="#c6c6c6"
         offset=".414" />
      <stop
         id="stop39"
         stop-opacity=".498"
         offset=".7203" />
      <stop
         id="stop41"
         stop-opacity="0"
         stop-color="#fff"
         offset="1" />
    </linearGradient>
    <linearGradient
       xlink:href="#linearGradient5351"
       id="linearGradient4291"
       gradientUnits="userSpaceOnUse"
       gradientTransform="matrix(0.65303,-1.0093258e-8,1.0093258e-8,0.65303,-48.81909,-153.51503)"
       x1="-68.831429"
       x2="671.59937" />
    <linearGradient
       x2="671.59937"
       x1="-68.831429"
       id="linearGradient4361"
       gradientUnits="userSpaceOnUse"
       gradientTransform="matrix(0.65303,-1.0093258e-8,1.0093258e-8,0.65303,-48.81909,-153.51503)">
      <stop
         id="stop4363"
         stop-color="#808080"
         offset="0" />
      <stop
         id="stop4365"
         stop-opacity=".8078"
         stop-color="#efefef"
         offset=".5452" />
      <stop
         id="stop4367"
         stop-opacity=".6863"
         stop-color="#808080"
         offset="1" />
      <stop
         id="stop4369"
         stop-opacity=".498"
         stop-color="#808080"
         offset="1" />
    </linearGradient>
    <radialGradient
       gradientTransform="matrix(-0.636276,0,0,0.959301,148.69982,-40.755623)"
       xlink:href="#linearGradient2251"
       r="18.957291"
       id="radialGradient5076"
       gradientUnits="userSpaceOnUse"
       cy="18.30546"
       cx="-3.0652101" />
    <linearGradient
       id="linearGradient2251">
      <stop
         id="stop7"
         stop-color="#f6e1cf"
         offset="0" />
      <stop
         id="stop9"
         stop-color="#e19d56"
         offset=".5" />
      <stop
         id="stop11"
         stop-color="#f4dcb7"
         offset="1" />
    </linearGradient>
    <radialGradient
       gradientTransform="matrix(0.636276,0,0,0.959301,128.58054,-40.755623)"
       r="18.957291"
       cy="18.30546"
       cx="-3.0652101"
       gradientUnits="userSpaceOnUse"
       id="radialGradient3380"
       xlink:href="#linearGradient2251" />
    <radialGradient
       xlink:href="#linearGradient2251"
       r="14.99999"
       id="radialGradient5086"
       gradientUnits="userSpaceOnUse"
       gradientTransform="matrix(2.783877,0,0,1.961686,71.736717,-81.307514)"
       cy="32.820721"
       cx="24.00001" />
  </defs>
  <sodipodi:namedview
     pagecolor="#ffffff"
     bordercolor="#666666"
     borderopacity="1"
     objecttolerance="10"
     gridtolerance="10"
     guidetolerance="10"
     inkscape:pageopacity="0"
     inkscape:pageshadow="2"
     inkscape:window-width="1291"
     inkscape:window-height="795"
     id="namedview16"
     showgrid="false"
     inkscape:zoom="1.2808977"
     inkscape:cx="212.26165"
     inkscape:cy="215.96928"
     inkscape:window-x="12"
     inkscape:window-y="53"
     inkscape:window-maximized="0"
     inkscape:current-layer="svg2"
     fit-margin-top="0"
     fit-margin-left="0"
     fit-margin-right="0"
     fit-margin-bottom="0" />
  <g
     id="g4278"
     transform="translate(-33.421883,4.6530993)">
    <rect
       y="-1.4631635"
       x="44.286201"
       height="424"
       width="317.41281"
       id="rect4450"
       style="opacity:1;fill:#ffffff;fill-opacity:1;fill-rule:nonzero;stroke:none;stroke-width:7.99999952;stroke-miterlimit:4;stroke-dasharray:none;stroke-opacity:1" />
    <g
       transform="matrix(0.52334098,0,0,0.51547408,8.6393114,-56.678842)"
       id="g4403">
      <rect
         transform="matrix(0.99815136,0,0,0.25546737,7.8004281,-25.859884)"
         y="498.07648"
         x="40"
         height="97.14286"
         width="631.42859"
         id="rect4136-0"
         style="opacity:1;fill:#ffdd55;fill-opacity:1;fill-rule:nonzero;stroke:none;stroke-width:3.79866695;stroke-miterlimit:4;stroke-dasharray:none;stroke-opacity:1;filter:url(#filter4138-8)" />
      <rect
         transform="matrix(0.99815136,0,0,0.25546737,10.65756,789.85436)"
         y="498.07648"
         x="40"
         height="97.14286"
         width="631.42859"
         id="rect4136-0-4"
         style="opacity:1;fill:#ffdd55;fill-opacity:1;fill-rule:nonzero;stroke:none;stroke-width:3.79866695;stroke-miterlimit:4;stroke-dasharray:none;stroke-opacity:1;filter:url(#filter4138-8-4)" />
      <g
         id="g4368">
        <rect
           style="opacity:1;fill:#ffdd55;fill-opacity:1;fill-rule:nonzero;stroke:none;stroke-width:3.79866695;stroke-miterlimit:4;stroke-dasharray:none;stroke-opacity:1;filter:url(#filter4138)"
           id="rect4136"
           width="631.42859"
           height="97.14286"
           x="40"
           y="498.07648"
           transform="matrix(0.04226428,0,0,8.3623635,42.108877,-4044.6205)" />
        <rect
           style="opacity:1;fill:#ffdd55;fill-opacity:1;fill-rule:nonzero;stroke:none;stroke-width:3.79866695;stroke-miterlimit:4;stroke-dasharray:none;stroke-opacity:1;filter:url(#filter4138-4)"
           id="rect4136-5"
           width="631.42859"
           height="97.14286"
           x="40"
           y="498.07648"
           transform="matrix(0.04226428,0,0,8.3623635,656.39457,-4044.6206)" />
      </g>
    </g>
  </g>
  <g
     id="g4390"
     transform="matrix(1.0513983,0,0,1.0665034,40.904145,70.83175)">
    <g
       transform="matrix(0.93696,0,0,1,7.58409,0)"
       id="g214">
      <path
         inkscape:connector-curvature="0"
         d="m 229.842,161.205 c 0.018,60.508 -49.029,109.569 -109.538,109.569 -60.509,0 -109.555,-49.062 -109.536,-109.569 -0.018,-60.508 49.029,-109.57 109.537,-109.57 60.508,0 109.555,49.062 109.537,109.57 z"
         id="path216"
         style="fill:#8b4513;stroke:#010101;stroke-width:3.10447264;stroke-linecap:round;stroke-linejoin:round" />
      <path
         inkscape:connector-curvature="0"
         d="m 223.221,123.626 c 0.076,1.682 0.125,3.393 0.125,5.094 0,60.464 -49.068,109.531 -109.532,109.531 -47.262,0 -87.592,-30 -102.938,-71.969 2.653,58.111 50.674,104.469 109.438,104.469 60.463,0 109.532,-49.067 109.532,-109.531 0,-13.202 -2.338,-25.87 -6.625,-37.594 z"
         id="path218-5"
         style="fill:#010101;fill-opacity:0.3137" />
    </g>
    <path
       inkscape:connector-curvature="0"
       d="m 112.808,271.777 c 0,9.091 -14.665,9.381 -32.734,9.381 -18.069,0 -32.736,0.693 -32.736,-9.381 0,-17.716 14.666,-32.095 32.736,-32.095 18.07,0 32.734,14.379 32.734,32.095 z"
       id="path220-9"
       style="fill:#343434;stroke:#010101;stroke-width:3.77741981;stroke-linecap:round;stroke-linejoin:round" />
    <path
       inkscape:connector-curvature="0"
       d="m 67.483,280.557 c 0,-16.368 9.442,-26.44 9.442,-26.44 0,0 -3.777,13.85 -3.147,26.44 l -6.295,0 z"
       id="path222-7"
       style="fill:#010101;fill-opacity:0.3137;stroke:#010101;stroke-width:3.77741981;stroke-linejoin:round" />
    <path
       inkscape:connector-curvature="0"
       d="m 127.806,271.777 c 0,9.091 14.666,9.381 32.735,9.381 18.069,0 32.735,0.693 32.735,-9.381 0,-17.716 -14.666,-32.095 -32.735,-32.095 -18.069,0 -32.735,14.379 -32.735,32.095 z"
       id="path224-1"
       style="fill:#343434;stroke:#010101;stroke-width:3.77741981;stroke-linecap:round;stroke-linejoin:round" />
    <path
       inkscape:connector-curvature="0"
       d="m 173.132,280.557 c 0,-16.368 -9.443,-26.44 -9.443,-26.44 0,0 3.777,13.85 3.147,26.44 l 6.296,0 z"
       id="path226"
       style="fill:#010101;fill-opacity:0.3137;stroke:#010101;stroke-width:3.77741981;stroke-linejoin:round" />
    <g
       transform="translate(-0.97308,14.59624)"
       id="g228">
      <path
         inkscape:connector-curvature="0"
         d="m 113.918,34.501 c 0.729,0.092 1.46,0.22 2.203,0.33 19.911,2.985 34.102,11.633 43.385,23.958 l 12.053,-16.931 -0.247,-0.015 C 163.082,22.817 146.772,9.092 120.571,5.162 119.829,5.05 119.095,4.923 118.367,4.831 107.808,3.51 98.352,4.225 89.959,6.63 l -4.448,29.667 c 8.391,-2.404 17.849,-3.119 28.407,-1.796 z"
         id="path230-4"
         style="fill:#696969;stroke:#010101;stroke-width:3.77741981;stroke-linecap:round;stroke-linejoin:round" />
    </g>
    <path
       inkscape:connector-curvature="0"
       d="m 204.718,125.921 c 0,45.175 -55.121,81.838 -81.838,81.838 -25.719,0 -81.838,-36.663 -81.838,-81.838 0,-45.175 24.625,-81.838 81.838,-81.838 57.223,0 81.838,36.665 81.838,81.838 z"
       id="path232-0"
       style="fill:#010101;fill-opacity:0.3137" />
    <path
       inkscape:connector-curvature="0"
       d="m 198.64,85.911 -1.875,2.656 c 0.248,3.076 0.344,6.203 0.344,9.375 0,45.175 -55.127,81.844 -81.844,81.844 -20.707,0 -61.098,-23.756 -76.063,-56.594 7.615,40.246 57.172,71.375 80.875,71.375 26.717,0 81.844,-36.669 81.844,-81.844 0,-9.391 -1.076,-18.41 -3.281,-26.812 z"
       id="path234-5"
       style="fill:#010101;fill-opacity:0.3137" />
    <path
       inkscape:connector-curvature="0"
       d="m 235.027,4.202 c -5.021,-6.518 -64.881,6.35949 -73.391,39.3455 -0.078,0.154 -0.215,0.618 -0.369,1.315 -0.047,0.214 -0.096,0.447 -0.146,0.705 -1.925,-1.174 -3.908,-2.261 -5.935,-3.272 -9.979,-3.714 -21.665,-5.762 -35.173,-5.762 -0.895,0 -1.779,-0.018 -2.656,0 -12.873,0.261 -24.037,2.432 -33.6,6.159 -2.307,1.185 -4.552,2.471 -6.723,3.866 -0.045,-0.282 -0.091,-0.543 -0.136,-0.794 -0.216,-1.183 -0.433,-2.007 -0.537,-2.216 C 69.714,17.7765 31.732,2.02801 13.032,2.02301 c -5.237,-0.001 -8.962,0.753 -10.06,2.179 -4.002,5.193 4.251,46.94 26.575,61.389 4.198,2.717 8.894,4.473 14.101,4.833 2.119,0.146 4.11,0.156 5.98,0.119 -5.838,11.05 -9.148,23.634 -9.148,36.993 0,13.517 -2.58482,20.60859 9.349,40.84 11.93382,20.23141 51.79,45.975 70.186,45.975 18.565,0 56.47773,-23.74526 68.815,-43.672 12.33727,-19.92674 10.433,-28.833 10.433,-43.143 0,-13.346 -3.322,-25.91 -9.148,-36.953 1.345,-0.012 2.771,-0.057 4.237,-0.158 5.595,-0.388 10.6,-2.384 15.031,-5.457 21.621,-14.989 29.589,-55.646 25.644,-60.766 z"
       id="path236"
       style="fill:#8b4513;stroke:#010101;stroke-width:3.77741981;stroke-linecap:round;stroke-linejoin:round" />
    <path
       inkscape:connector-curvature="0"
       d="m 119.63,28.536 c -35.869,0 -66.33,24.378 -77.402,58.299 -1.3,5.692 -1.994,11.615 -1.994,17.701 0,1.284 0.04,2.575 0.101,3.87 9.091,-37.305 23.39374,-68.27579 78.56619,-68.27579 55.17245,0 70.91281,30.95179 80.01581,68.23879 0.059,-1.282 0.1,-2.561 0.1,-3.833 0,-6.169 -0.718,-12.168 -2.057,-17.93 -11.135,-33.802 -41.542,-58.07 -77.33,-58.07 z"
       id="path238-1" />
    <g
       transform="translate(2.75229,9.63302)"
       id="g240">
      <path
         inkscape:connector-curvature="0"
         d="m 118.24919,142.7313 c -24.8242,0 -44.95301,16.51698 -44.95301,36.86825 0,3.77431 0.70362,7.42739 1.99214,10.85801 15.88584,9.67698 31.73794,15.27096 42.96088,15.27096 11.4954,0 27.19002,-5.41276 42.84466,-14.84104 1.39099,-3.5531 2.14835,-7.3574 2.14835,-11.28668 0,-20.35377 -20.17005,-36.8695 -44.99301,-36.8695 z"
         id="path242-2"
         style="fill:#d2691e;stroke:#010101;stroke-width:4.72090626;stroke-linecap:round;stroke-linejoin:round" />
      <path
         inkscape:connector-curvature="0"
         d="m 102.847,169.368 c 2.293,3.974 6.5,5.839 9.396,4.167 2.896,-1.672 3.385,-6.249 1.091,-10.222 -2.294,-3.973 -6.5,-5.838 -9.396,-4.166 -2.896,1.672 -3.385,6.249 -1.091,10.221 z"
         id="path244-3"
         style="fill:#010101" />
      <path
         inkscape:connector-curvature="0"
         d="m 135.584,169.368 c -2.292,3.974 -6.5,5.839 -9.396,4.167 -2.896,-1.672 -3.385,-6.249 -1.091,-10.222 2.294,-3.973 6.5,-5.838 9.396,-4.166 2.896,1.672 3.385,6.249 1.091,10.221 z"
         id="path246"
         style="fill:#010101" />
    </g>
    <path
       inkscape:connector-curvature="0"
       d="m 168.029,100.737 c 0.003,12.519 -10.144,22.669 -22.663,22.669 -12.519,0 -22.666,-10.15 -22.662,-22.669 0.004,-12.519 10.144,-22.67 22.662,-22.67 12.518,0 22.666,10.15 22.663,22.67 z"
       id="path248-2"
       style="fill:#ffffff;stroke:#010101;stroke-width:3.77741981;stroke-linecap:round;stroke-linejoin:round" />
    <path
       inkscape:connector-curvature="0"
       d="m 147.883,104.736 c 0.002,4.174 -3.381,7.557 -7.555,7.557 -4.174,0 -7.555,-3.383 -7.554,-7.557 0.001,-4.174 3.382,-7.556 7.554,-7.556 4.172,0 7.557,3.383 7.555,7.556 z"
       id="path250-2"
       style="fill:#010101" />
    <path
       inkscape:connector-curvature="0"
       d="m 115.295,100.737 c 0.004,12.519 -10.144,22.669 -22.662,22.669 -12.518,0 -22.667,-10.15 -22.663,-22.669 0.004,-12.519 10.144,-22.67 22.663,-22.67 12.519,0 22.666,10.15 22.662,22.67 z"
       id="path252-0"
       style="fill:#ffffff;stroke:#010101;stroke-width:3.77741981;stroke-linecap:round;stroke-linejoin:round" />
    <path
       inkscape:connector-curvature="0"
       d="m 105.854,104.736 c 0,4.174 -3.382,7.557 -7.555,7.557 -4.173,0 -7.556,-3.383 -7.555,-7.557 0.001,-4.174 3.381,-7.556 7.555,-7.556 4.174,0 7.555,3.383 7.555,7.556 z"
       id="path254-9"
       style="fill:#010101" />
    <path
       inkscape:connector-curvature="0"
       d="m 62.43121,54.95786 c -2.512,-36.234 -40.30754,-35.48399 -42.10154,-31.17899 -1.794,4.305 7.30354,43.73499 42.10154,31.17899 z"
       id="path256"
       style="fill:#010101;stroke:#010101;stroke-width:3.77741981;stroke-linejoin:round" />
    <path
       inkscape:connector-curvature="0"
       d="m 177.39132,55.07949 c 2.511,-36.234 37.26766,-36.09216 39.06066,-31.78716 1.793,4.305 -4.26166,44.34316 -39.06066,31.78716 z"
       id="path258-1"
       style="fill:#010101;stroke:#010101;stroke-width:3.77741981;stroke-linejoin:round" />
  </g>
</svg>
