<?xml version="1.0" encoding="UTF-8" standalone="no"?>
<svg
   xmlns:dc="http://purl.org/dc/elements/1.1/"
   xmlns:cc="http://creativecommons.org/ns#"
   xmlns:rdf="http://www.w3.org/1999/02/22-rdf-syntax-ns#"
   xmlns:svg="http://www.w3.org/2000/svg"
   xmlns="http://www.w3.org/2000/svg"
   xmlns:xlink="http://www.w3.org/1999/xlink"
   xmlns:sodipodi="http://sodipodi.sourceforge.net/DTD/sodipodi-0.dtd"
   xmlns:inkscape="http://www.inkscape.org/namespaces/inkscape"
   width="332"
   height="434"
   id="svg2"
   version="1.1"
   inkscape:version="0.91 r13725"
   sodipodi:docname="rabbit.svg">
  <metadata
     id="metadata20">
    <rdf:RDF>
      <cc:Work
         rdf:about="">
        <dc:format>image/svg+xml</dc:format>
        <dc:type
           rdf:resource="http://purl.org/dc/dcmitype/StillImage" />
        <dc:title></dc:title>
      </cc:Work>
    </rdf:RDF>
  </metadata>
  <defs
     id="defs18">
    <filter
       id="filter4138-8"
       x="-0.1"
       y="-0.1"
       width="1.2"
       height="1.2"
       style="color-interpolation-filters:sRGB">
      <feTurbulence
         id="feTurbulence4140-8"
         result="result1"
         numOctaves="3"
         baseFrequency="1"
         type="fractalNoise"
         seed="50" />
      <feColorMatrix
         id="feColorMatrix4142-7"
         result="result0"
         in="SourceGraphic"
         type="luminanceToAlpha" />
      <feColorMatrix
         id="feColorMatrix4144-5"
         values="1 0 0 0 0 0 1 0 0 0 0 0 1 0 0 0 0 0 0.5 0 "
         result="result2" />
      <feComposite
         id="feComposite4146-9"
         in2="result2"
         in="result1"
         operator="over"
         result="result3" />
      <feColorMatrix
         id="feColorMatrix4148-5"
         values="1 0 0 0 0 0 1 0 0 0 0 0 1 0 0 0 0 0 5 -3.2"
         result="result91" />
      <feComposite
         id="feComposite4150-7"
         result="result93"
         k1="1.5"
         operator="arithmetic"
         in2="result91"
         k2="0"
         k3="0"
         k4="0" />
      <feComposite
         id="feComposite4152-4"
         result="result4"
         operator="out"
         in="SourceGraphic"
         in2="result93" />
      <feComposite
         id="feComposite4154-9"
         k1="1"
         k2="0.5"
         operator="arithmetic"
         in2="result4"
         k3="0"
         k4="0" />
      <feDisplacementMap
         id="feDisplacementMap4156-3"
         result="result92"
         in2="result1"
         yChannelSelector="A"
         xChannelSelector="R"
         scale="15" />
    </filter>
    <filter
       id="filter4138-8-4"
       x="-0.1"
       y="-0.1"
       width="1.2"
       height="1.2"
       style="color-interpolation-filters:sRGB">
      <feTurbulence
         id="feTurbulence4140-8-1"
         result="result1"
         numOctaves="3"
         baseFrequency="1"
         type="fractalNoise"
         seed="50" />
      <feColorMatrix
         id="feColorMatrix4142-7-1"
         result="result0"
         in="SourceGraphic"
         type="luminanceToAlpha" />
      <feColorMatrix
         id="feColorMatrix4144-5-3"
         values="1 0 0 0 0 0 1 0 0 0 0 0 1 0 0 0 0 0 0.5 0 "
         result="result2" />
      <feComposite
         id="feComposite4146-9-1"
         in2="result2"
         in="result1"
         operator="over"
         result="result3" />
      <feColorMatrix
         id="feColorMatrix4148-5-3"
         values="1 0 0 0 0 0 1 0 0 0 0 0 1 0 0 0 0 0 5 -3.2"
         result="result91" />
      <feComposite
         id="feComposite4150-7-6"
         result="result93"
         k1="1.5"
         operator="arithmetic"
         in2="result91"
         k2="0"
         k3="0"
         k4="0" />
      <feComposite
         id="feComposite4152-4-1"
         result="result4"
         operator="out"
         in="SourceGraphic"
         in2="result93" />
      <feComposite
         id="feComposite4154-9-4"
         k1="1"
         k2="0.5"
         operator="arithmetic"
         in2="result4"
         k3="0"
         k4="0" />
      <feDisplacementMap
         id="feDisplacementMap4156-3-5"
         result="result92"
         in2="result1"
         yChannelSelector="A"
         xChannelSelector="R"
         scale="15" />
    </filter>
    <filter
       id="filter4138"
       x="-0.1"
       y="-0.1"
       width="1.2"
       height="1.2"
       style="color-interpolation-filters:sRGB">
      <feTurbulence
         id="feTurbulence4140"
         result="result1"
         numOctaves="3"
         baseFrequency="1"
         type="fractalNoise"
         seed="50" />
      <feColorMatrix
         id="feColorMatrix4142"
         result="result0"
         in="SourceGraphic"
         type="luminanceToAlpha" />
      <feColorMatrix
         id="feColorMatrix4144"
         values="1 0 0 0 0 0 1 0 0 0 0 0 1 0 0 0 0 0 0.5 0 "
         result="result2" />
      <feComposite
         id="feComposite4146"
         in2="result2"
         in="result1"
         operator="over"
         result="result3" />
      <feColorMatrix
         id="feColorMatrix4148"
         values="1 0 0 0 0 0 1 0 0 0 0 0 1 0 0 0 0 0 5 -3.2"
         result="result91" />
      <feComposite
         id="feComposite4150"
         result="result93"
         k1="1.5"
         operator="arithmetic"
         in2="result91"
         k2="0"
         k3="0"
         k4="0" />
      <feComposite
         id="feComposite4152"
         result="result4"
         operator="out"
         in="SourceGraphic"
         in2="result93" />
      <feComposite
         id="feComposite4154"
         k1="1"
         k2="0.5"
         operator="arithmetic"
         in2="result4"
         k3="0"
         k4="0" />
      <feDisplacementMap
         id="feDisplacementMap4156"
         result="result92"
         in2="result1"
         yChannelSelector="A"
         xChannelSelector="R"
         scale="15" />
    </filter>
    <filter
       id="filter4138-4"
       x="-0.1"
       y="-0.1"
       width="1.2"
       height="1.2"
       style="color-interpolation-filters:sRGB">
      <feTurbulence
         id="feTurbulence4140-9"
         result="result1"
         numOctaves="3"
         baseFrequency="1"
         type="fractalNoise"
         seed="50" />
      <feColorMatrix
         id="feColorMatrix4142-72"
         result="result0"
         in="SourceGraphic"
         type="luminanceToAlpha" />
      <feColorMatrix
         id="feColorMatrix4144-8"
         values="1 0 0 0 0 0 1 0 0 0 0 0 1 0 0 0 0 0 0.5 0 "
         result="result2" />
      <feComposite
         id="feComposite4146-93"
         in2="result2"
         in="result1"
         operator="over"
         result="result3" />
      <feColorMatrix
         id="feColorMatrix4148-9"
         values="1 0 0 0 0 0 1 0 0 0 0 0 1 0 0 0 0 0 5 -3.2"
         result="result91" />
      <feComposite
         id="feComposite4150-6"
         result="result93"
         k1="1.5"
         operator="arithmetic"
         in2="result91"
         k2="0"
         k3="0"
         k4="0" />
      <feComposite
         id="feComposite4152-9"
         result="result4"
         operator="out"
         in="SourceGraphic"
         in2="result93" />
      <feComposite
         id="feComposite4154-6"
         k1="1"
         k2="0.5"
         operator="arithmetic"
         in2="result4"
         k3="0"
         k4="0" />
      <feDisplacementMap
         id="feDisplacementMap4156-8"
         result="result92"
         in2="result1"
         yChannelSelector="A"
         xChannelSelector="R"
         scale="15" />
    </filter>
    <clipPath
       id="clipPath3683">
      <path
         inkscape:connector-curvature="0"
         id="path40-0"
         d="m 248.974,113.099 12.447,0 0,-19.4291 -12.447,0 0,19.4291 z" />
    </clipPath>
    <clipPath
       id="clipPath3703">
      <path
         inkscape:connector-curvature="0"
         id="path37-0"
         d="m 261.257,79.6387 5.806,0 0,-8.6084 -5.806,0 0,8.6084 z" />
    </clipPath>
    <clipPath
       id="clipPath3719">
      <path
         inkscape:connector-curvature="0"
         id="path34-4"
         d="m 262.325,69.833 3.153,0 0,-3.1523 -3.153,0 0,3.1523 z" />
    </clipPath>
    <clipPath
       id="clipPath3739">
      <path
         inkscape:connector-curvature="0"
         id="path31-3"
         d="m 293.42,79.6387 5.806,0 0,-8.6084 -5.806,0 0,8.6084 z" />
    </clipPath>
    <clipPath
       id="clipPath3755">
      <path
         inkscape:connector-curvature="0"
         id="path28-7"
         d="m 294.489,69.833 3.152,0 0,-3.1523 -3.152,0 0,3.1523 z" />
    </clipPath>
    <clipPath
       id="clipPath3771">
      <path
         inkscape:connector-curvature="0"
         id="path25-1"
         d="m 280.582,58.7637 3.656,0 0,-9.2285 -3.656,0 0,9.2285 z" />
    </clipPath>
    <clipPath
       id="clipPath3791">
      <path
         inkscape:connector-curvature="0"
         id="path22-9"
         d="m 222.104,108.127 14.438,0 0,-22.1348 -14.438,0 0,22.1348 z" />
    </clipPath>
    <clipPath
       id="clipPath3807">
      <path
         inkscape:connector-curvature="0"
         id="path19-2"
         d="m 233.618,71.3477 8.08,0 0,-9.7227 -8.08,0 0,9.7227 z" />
    </clipPath>
    <clipPath
       id="clipPath3823">
      <path
         inkscape:connector-curvature="0"
         id="path16-2"
         d="m 235.105,50.6084 6.292,0 0,-6.9043 -6.292,0 0,6.9043 z" />
    </clipPath>
    <clipPath
       id="clipPath3839">
      <path
         inkscape:connector-curvature="0"
         id="path13-4"
         d="m 240.804,44.6299 22.052,0 0,-27.4121 -22.052,0 0,27.4121 z" />
    </clipPath>
    <clipPath
       id="clipPath3855">
      <path
         inkscape:connector-curvature="0"
         id="path10-8"
         d="m 235.568,61.5654 7.432,0 0,-7.9189 -7.432,0 0,7.9189 z" />
    </clipPath>
    <clipPath
       id="clipPath3871">
      <path
         inkscape:connector-curvature="0"
         id="path7-6"
         d="m 236.299,93.3604 17.909,0 0,-22.6583 -17.909,0 0,22.6583 z" />
    </clipPath>
    <radialGradient
       r="61.9286"
       id="radialGradient3090"
       gradientUnits="userSpaceOnUse"
       gradientTransform="matrix(1,0,0,1.36909,0,-73.63508)"
       cy="199.505"
       cx="178.5714">
      <stop
         id="stop22"
         offset="0" />
      <stop
         id="stop24"
         stop-opacity="0"
         offset="1" />
    </radialGradient>
    <filter
       y="-0.14480001"
       x="-0.16339999"
       width="1.3267"
       id="filter5029"
       height="1.2896">
      <feGaussianBlur
         id="feGaussianBlur7"
         stdDeviation="9.413" />
    </filter>
    <filter
       y="-0.1053"
       x="-0.13950001"
       width="1.279"
       id="filter5035"
       height="1.2106">
      <feGaussianBlur
         id="feGaussianBlur10"
         stdDeviation="7.305" />
    </filter>
    <filter
       y="-0.1053"
       x="-0.13950001"
       width="1.279"
       id="filter4355"
       height="1.2106">
      <feGaussianBlur
         id="feGaussianBlur4357"
         stdDeviation="7.305" />
    </filter>
    <filter
       y="-0.1124"
       x="-0.1287"
       width="1.2573"
       id="filter5059"
       height="1.2249">
      <feGaussianBlur
         id="feGaussianBlur13"
         stdDeviation="7.359" />
    </filter>
    <filter
       y="-0.2264"
       x="-0.2489"
       width="1.4978"
       id="filter5069"
       height="1.4529001">
      <feGaussianBlur
         id="feGaussianBlur16"
         stdDeviation="14.662" />
    </filter>
    <filter
       y="-0.21780001"
       x="-0.26440001"
       width="1.5288"
       id="filter5087"
       height="1.4355">
      <feGaussianBlur
         id="feGaussianBlur19"
         stdDeviation="14.612" />
    </filter>
    <linearGradient
       y2="477.66312"
       y1="186.72581"
       x2="352.67099"
       x1="360.19147"
       id="linearGradient5343"
       gradientUnits="userSpaceOnUse"
       gradientTransform="matrix(2.48619,-2.30059,2.61564,2.48619,-1436.2476,-414.48179)">
      <stop
         id="stop7-9"
         stop-color="#808080"
         offset="0" />
      <stop
         id="stop9-3"
         stop-opacity="0"
         stop-color="#808080"
         offset="1" />
    </linearGradient>
    <linearGradient
       y2="302.50848"
       y1="603.22272"
       x2="0"
       id="linearGradient5345"
       gradientUnits="userSpaceOnUse"
       gradientTransform="matrix(2.48619,-2.45306,2.45306,2.48619,-1378.1875,-456.68505)">
      <stop
         id="stop12"
         stop-color="#fff9f9"
         offset="0" />
      <stop
         id="stop14"
         stop-opacity=".749"
         offset=".3251" />
      <stop
         id="stop16"
         stop-opacity=".498"
         offset=".7513" />
      <stop
         id="stop18"
         stop-opacity="0"
         offset="1" />
    </linearGradient>
    <linearGradient
       y2="603.22272"
       y1="302.50848"
       x2="0"
       id="linearGradient5347"
       gradientUnits="userSpaceOnUse"
       gradientTransform="matrix(2.48619,-2.45306,2.45306,2.48619,-1378.1875,-456.68505)">
      <stop
         id="stop21"
         offset="0" />
      <stop
         id="stop23"
         stop-opacity="0"
         offset="1" />
    </linearGradient>
    <radialGradient
       r="247.53943"
       id="radialGradient5349"
       gradientUnits="userSpaceOnUse"
       gradientTransform="matrix(0.93945,-7.8611953e-8,2.8670644e-8,0.36248,-141.8888,-98.64365)"
       cy="656.4552"
       cx="324.94135">
      <stop
         id="stop44"
         stop-color="#ccfc1c"
         offset="0" />
      <stop
         id="stop46"
         stop-opacity="0"
         stop-color="#ccfc1c"
         offset="1" />
    </radialGradient>
    <linearGradient
       xlink:href="#linearGradient5351"
       id="linearGradient4289"
       gradientUnits="userSpaceOnUse"
       gradientTransform="matrix(0.65303,-1.0093258e-8,1.0093258e-8,0.65303,-48.81909,-153.51503)"
       x1="-68.831429"
       x2="671.59937" />
    <linearGradient
       x2="671.59937"
       x1="-68.831429"
       id="linearGradient5351"
       gradientUnits="userSpaceOnUse"
       gradientTransform="matrix(0.65303,-1.0093258e-8,1.0093258e-8,0.65303,-48.81909,-153.51503)">
      <stop
         id="stop26"
         stop-color="#808080"
         offset="0" />
      <stop
         id="stop28"
         stop-opacity=".8078"
         stop-color="#efefef"
         offset=".5452" />
      <stop
         id="stop30"
         stop-opacity=".6863"
         stop-color="#808080"
         offset="1" />
      <stop
         id="stop32"
         stop-opacity=".498"
         stop-color="#808080"
         offset="1" />
    </linearGradient>
    <linearGradient
       x2="459.52502"
       x1="325.7702"
       id="linearGradient5353"
       gradientUnits="userSpaceOnUse"
       gradientTransform="matrix(2.28277,-2.5441479e-8,3.4593465e-8,2.98166,-701.60077,-683.39007)">
      <stop
         id="stop35"
         offset="0" />
      <stop
         id="stop37"
         stop-opacity=".749"
         stop-color="#c6c6c6"
         offset=".414" />
      <stop
         id="stop39"
         stop-opacity=".498"
         offset=".7203" />
      <stop
         id="stop41"
         stop-opacity="0"
         stop-color="#fff"
         offset="1" />
    </linearGradient>
    <linearGradient
       xlink:href="#linearGradient5351"
       id="linearGradient4291"
       gradientUnits="userSpaceOnUse"
       gradientTransform="matrix(0.65303,-1.0093258e-8,1.0093258e-8,0.65303,-48.81909,-153.51503)"
       x1="-68.831429"
       x2="671.59937" />
    <linearGradient
       x2="671.59937"
       x1="-68.831429"
       id="linearGradient4361"
       gradientUnits="userSpaceOnUse"
       gradientTransform="matrix(0.65303,-1.0093258e-8,1.0093258e-8,0.65303,-48.81909,-153.51503)">
      <stop
         id="stop4363"
         stop-color="#808080"
         offset="0" />
      <stop
         id="stop4365"
         stop-opacity=".8078"
         stop-color="#efefef"
         offset=".5452" />
      <stop
         id="stop4367"
         stop-opacity=".6863"
         stop-color="#808080"
         offset="1" />
      <stop
         id="stop4369"
         stop-opacity=".498"
         stop-color="#808080"
         offset="1" />
    </linearGradient>
  </defs>
  <sodipodi:namedview
     pagecolor="#ffffff"
     bordercolor="#666666"
     borderopacity="1"
     objecttolerance="10"
     gridtolerance="10"
     guidetolerance="10"
     inkscape:pageopacity="0"
     inkscape:pageshadow="2"
     inkscape:window-width="1291"
     inkscape:window-height="795"
     id="namedview16"
     showgrid="false"
     inkscape:zoom="1.2808977"
     inkscape:cx="212.26165"
     inkscape:cy="215.96928"
     inkscape:window-x="12"
     inkscape:window-y="53"
     inkscape:window-maximized="0"
     inkscape:current-layer="svg2"
     fit-margin-top="0"
     fit-margin-left="0"
     fit-margin-right="0"
     fit-margin-bottom="0" />
  <g
     id="g4278"
     transform="translate(-33.421883,4.6530993)">
    <rect
       y="-1.4631635"
       x="44.286201"
       height="424"
       width="317.41281"
       id="rect4450"
       style="opacity:1;fill:#ffffff;fill-opacity:1;fill-rule:nonzero;stroke:none;stroke-width:7.99999952;stroke-miterlimit:4;stroke-dasharray:none;stroke-opacity:1" />
    <g
       transform="matrix(0.52334098,0,0,0.51547408,8.6393114,-56.678842)"
       id="g4403">
      <rect
         transform="matrix(0.99815136,0,0,0.25546737,7.8004281,-25.859884)"
         y="498.07648"
         x="40"
         height="97.14286"
         width="631.42859"
         id="rect4136-0"
         style="opacity:1;fill:#ffdd55;fill-opacity:1;fill-rule:nonzero;stroke:none;stroke-width:3.79866695;stroke-miterlimit:4;stroke-dasharray:none;stroke-opacity:1;filter:url(#filter4138-8)" />
      <rect
         transform="matrix(0.99815136,0,0,0.25546737,10.65756,789.85436)"
         y="498.07648"
         x="40"
         height="97.14286"
         width="631.42859"
         id="rect4136-0-4"
         style="opacity:1;fill:#ffdd55;fill-opacity:1;fill-rule:nonzero;stroke:none;stroke-width:3.79866695;stroke-miterlimit:4;stroke-dasharray:none;stroke-opacity:1;filter:url(#filter4138-8-4)" />
      <g
         id="g4368">
        <rect
           style="opacity:1;fill:#ffdd55;fill-opacity:1;fill-rule:nonzero;stroke:none;stroke-width:3.79866695;stroke-miterlimit:4;stroke-dasharray:none;stroke-opacity:1;filter:url(#filter4138)"
           id="rect4136"
           width="631.42859"
           height="97.14286"
           x="40"
           y="498.07648"
           transform="matrix(0.04226428,0,0,8.3623635,42.108877,-4044.6205)" />
        <rect
           style="opacity:1;fill:#ffdd55;fill-opacity:1;fill-rule:nonzero;stroke:none;stroke-width:3.79866695;stroke-miterlimit:4;stroke-dasharray:none;stroke-opacity:1;filter:url(#filter4138-4)"
           id="rect4136-5"
           width="631.42859"
           height="97.14286"
           x="40"
           y="498.07648"
           transform="matrix(0.04226428,0,0,8.3623635,656.39457,-4044.6206)" />
      </g>
    </g>
  </g>
  <g
     transform="matrix(0.70180853,0,0,0.70547698,52.15586,44.473503)"
     id="g4197">
    <path
       inkscape:connector-curvature="0"
       id="path2385"
       d="M 294.19503,332.64312 C 294.22273,405.98758 233.00735,465.4629 157.4707,465.4873 81.930691,465.5125 20.670911,406.07704 20.645761,332.73258 l 0,-0.0944 c -0.0268,-73.34447 61.18852,-132.81979 136.724329,-132.84418 75.53917,-0.0252 136.79979,59.41026 136.82494,132.75472 l 0,0.0943 z"
       style="fill:#ffffff;stroke:#010101;stroke-width:4.69386053;stroke-linecap:round;stroke-linejoin:round" />
    <path
       inkscape:connector-curvature="0"
       id="path3276"
       d="m 157.41201,199.8396 c -14.55101,0 -28.56632,2.22668 -41.72318,6.31895 11.83564,-2.68372 24.31847,-4.13293 37.21964,-4.13293 35.39038,0 67.66551,10.79669 91.95715,28.52144 -23.71235,-19.17315 -54.20937,-30.70746 -87.45529,-30.70746 z m 129.53141,90.03477 c 1.79488,7.09153 2.74387,14.41402 2.74387,21.92925 0,60.60086 -61.27906,109.78045 -136.78301,109.78045 -63.136819,0 -116.302459,-34.3866 -132.029649,-81.08985 4.19252,69.65313 63.7488,124.94754 136.531509,124.94754 75.50061,0 136.78302,-59.49565 136.78302,-132.80352 0.002,-14.95483 -2.54519,-29.34689 -7.24574,-42.76468 z"
       style="fill:#010101;fill-opacity:0.31400003" />
    <g
       id="g246"
       transform="matrix(0.83833671,0,0,0.81324873,-0.0108588,-2.9787723e-6)"
       style="stroke:#010101;stroke-width:5.68472195;stroke-linecap:round;stroke-linejoin:round">
      <g
         style="stroke-width:5.68472195"
         id="g248">
        <path
           inkscape:connector-curvature="0"
           id="path3165"
           d="m 130.67,502.29 c -32.664,0 -59.152,26.544 -59.152,59.237 0,6.7601 1.136,13.234 3.223,19.286 l 111.89,0 c 2.087,-6.052 3.223,-12.526 3.223,-19.286 -0.001,-32.693 -26.522,-59.237 -59.186,-59.237 z"
           style="fill:#ffffff;stroke-width:5.68472195" />
        <g
           id="g251"
           style="fill:#f9d5e4;stroke-width:5.68472195">
          <path
             inkscape:connector-curvature="0"
             style="stroke-width:5.68472195"
             id="path3220"
             d="m 125.44,564.73 c 0,10.393 -7.094,18.817 -15.846,18.817 -8.751,0 -15.845,-8.425 -15.845,-18.817 0,-10.392 7.094,-18.815 15.845,-18.815 8.752,0 15.846,8.4229 15.846,18.815 z" />
          <path
             inkscape:connector-curvature="0"
             style="stroke-width:5.68472195"
             id="path3224"
             d="m 165.18,564.73 c 0,10.393 -7.094,18.817 -15.846,18.817 -8.751,0 -15.845,-8.425 -15.845,-18.817 0,-10.392 7.094,-18.815 15.845,-18.815 8.752,0 15.846,8.4229 15.846,18.815 z" />
          <path
             inkscape:connector-curvature="0"
             style="stroke-width:5.68472195"
             id="path3222"
             d="m 146.38,564.73 c 0,10.393 -7.095,18.817 -15.846,18.817 -8.751,0 -15.845,-8.425 -15.845,-18.817 0,-10.392 7.094,-18.815 15.845,-18.815 8.752,0 15.846,8.4229 15.846,18.815 z" />
        </g>
      </g>
      <g
         style="stroke-width:5.68472195"
         id="g256">
        <path
           inkscape:connector-curvature="0"
           id="path3163"
           d="m 249.04,502.29 c -32.664,0 -59.186,26.544 -59.186,59.237 0,6.7601 1.136,13.234 3.224,19.286 l 111.89,0 c 2.086,-6.052 3.223,-12.526 3.223,-19.286 -10e-4,-32.693 -26.489,-59.237 -59.153,-59.237 z"
           style="fill:#ffffff;stroke-width:5.68472195" />
        <g
           id="g259"
           style="fill:#f9d5e4;stroke-width:5.68472195">
          <path
             inkscape:connector-curvature="0"
             style="stroke-width:5.68472195"
             id="path3226"
             d="m 247.36,564.73 c 0,10.393 -7.095,18.817 -15.846,18.817 -8.75,0 -15.846,-8.425 -15.846,-18.817 0,-10.392 7.096,-18.815 15.846,-18.815 8.752,0 15.846,8.4229 15.846,18.815 z" />
          <path
             inkscape:connector-curvature="0"
             style="stroke-width:5.68472195"
             id="path3228"
             d="m 287.11,564.73 c 0,10.393 -7.094,18.817 -15.846,18.817 -8.751,0 -15.845,-8.425 -15.845,-18.817 0,-10.392 7.094,-18.815 15.845,-18.815 8.753,0 15.846,8.4229 15.846,18.815 z" />
          <path
             inkscape:connector-curvature="0"
             style="stroke-width:5.68472195"
             id="path3230"
             d="m 268.31,564.73 c 0,10.393 -7.094,18.817 -15.846,18.817 -8.751,0 -15.846,-8.425 -15.846,-18.817 0,-10.392 7.095,-18.815 15.846,-18.815 8.753,0 15.846,8.4229 15.846,18.815 z" />
        </g>
      </g>
    </g>
    <path
       inkscape:connector-curvature="0"
       id="path3242"
       d="m 143.1519,339.39309 c 0,13.87158 -11.58078,25.11556 -25.86688,25.11556 -14.28609,0 -25.866869,-11.24398 -25.866869,-25.11556 0,-13.86996 11.580779,-25.11475 25.866869,-25.11475 14.2861,0 25.86688,11.24479 25.86688,25.11475 z"
       style="fill:#010101;fill-opacity:0.31400003" />
    <path
       inkscape:connector-curvature="0"
       id="path3159"
       d="m 135.41406,321.73746 c 7.14933,12.01249 2.91573,27.36663 -9.45644,34.29713 -12.37218,6.92888 -28.196619,2.80815 -35.345949,-9.20434 -7.14934,-12.01169 -2.91574,-27.36664 9.456429,-34.29633 12.37134,-6.92977 28.19662,-2.80815 35.34596,9.20354 z"
       style="fill:#ffffff;stroke:#010101;stroke-width:4.69386053;stroke-linecap:round;stroke-linejoin:round" />
    <g
       id="g271"
       transform="matrix(0.83833671,0,0,0.81324873,-0.0108588,-2.9787723e-6)">
      <path
         inkscape:connector-curvature="0"
         id="path3244"
         d="m 286.53,417.8 c 0,17.056 -13.814,30.882 -30.855,30.882 -17.041,0 -30.854,-13.826 -30.854,-30.882 0,-17.056 13.813,-30.882 30.854,-30.882 17.041,0 30.855,13.826 30.855,30.882 z"
         style="fill:#010101;fill-opacity:0.31400003" />
      <path
         inkscape:connector-curvature="0"
         id="path3161"
         d="m 272.5,432.87 c -12.061,12.061 -31.605,12.069 -43.655,0.02 -12.05,-12.04898 -12.041,-31.594 0.02,-43.654 12.06099,-12.06 31.605,-12.069 43.654,-0.02 12.05,12.049 12.041,31.594 -0.019,43.654 z"
         style="fill:#ffffff;stroke:#010101;stroke-width:5.68472195;stroke-linecap:round;stroke-linejoin:round" />
    </g>
    <path
       inkscape:connector-curvature="0"
       id="path3246"
       d="m 222.74359,153.7284 c 1.28341,5.15274 1.97009,10.55272 1.97009,16.08769 0,37.79248 -31.612,81.56884 -70.53513,81.56884 -28.37016,0 -52.81019,-23.26785 -63.991919,-50.51819 8.65918,31.46215 35.641879,60.97088 67.580839,60.97088 38.92313,0 70.53513,-43.8089 70.53513,-81.60138 0,-9.40441 -1.97847,-18.34933 -5.5238,-26.50621 l -0.0352,0 z"
       style="fill:#010101;fill-opacity:0.31400003" />
    <g
       id="g25"
       transform="matrix(0.83833671,0,0,0.81324873,-0.0108588,-2.9787723e-6)"
       style="fill:#f9d5e4;stroke:#010101;stroke-width:5.68472195;stroke-linecap:round;stroke-linejoin:round">
      <g
         style="stroke-width:5.68472195"
         id="g276">
        <path
           inkscape:connector-curvature="0"
           style="stroke-width:5.68472195"
           id="path3264"
           d="m 148.54,418.44 c 5.783,3.342 8.095,10.171 5.164,15.251 -2.931,5.082 -9.995,6.492 -15.778,3.15 -5.783,-3.342 -8.095,-10.17 -5.164,-15.252 2.931,-5.08 9.995,-6.49 15.778,-3.149 z" />
        <path
           inkscape:connector-curvature="0"
           style="stroke-width:5.68472195"
           id="path3266"
           d="m 161.85,395.36 c 5.783,3.342 8.095,10.17 5.164,15.252 -2.931,5.081 -9.995,6.491 -15.778,3.149 -5.783,-3.342 -8.095,-10.17 -5.164,-15.251 2.931,-5.081 9.995,-6.492 15.778,-3.15 z" />
        <path
           inkscape:connector-curvature="0"
           style="stroke-width:5.68472195"
           id="path3268"
           d="m 160.9,410.18 c 5.783,3.342 8.095,10.171 5.164,15.252 -2.931,5.082 -9.995,6.492 -15.778,3.15 -5.783,-3.342 -8.095,-10.17 -5.164,-15.252 2.931,-5.081 9.995,-6.492 15.778,-3.15 z" />
      </g>
      <g
         style="stroke-width:5.68472195"
         id="g281">
        <path
           inkscape:connector-curvature="0"
           style="stroke-width:5.68472195"
           id="path3270"
           d="m 236.21,416.51 c -6.451,1.73 -10.452,7.7289 -8.936,13.395 1.516,5.668 7.975,8.857 14.426,7.127 6.45,-1.731 10.451,-7.729 8.935,-13.396 -1.516,-5.667 -7.975,-8.857 -14.425,-7.126 z" />
        <path
           inkscape:connector-curvature="0"
           style="stroke-width:5.68472195"
           id="path3272"
           d="m 229.32,390.77 c -6.45,1.731 -10.451,7.729 -8.935,13.396 1.516,5.667 7.975,8.856 14.426,7.126 6.45,-1.73 10.451,-7.729 8.935,-13.395 -1.517,-5.669 -7.975,-8.858 -14.426,-7.127 z" />
        <path
           inkscape:connector-curvature="0"
           style="stroke-width:5.68472195"
           id="path3274"
           d="m 226.41,405.32 c -6.45,1.731 -10.45,7.729 -8.935,13.396 1.515,5.667 7.975,8.857 14.425,7.126 6.451,-1.73 10.451,-7.729 8.936,-13.395 -1.516,-5.667 -7.975,-8.857 -14.426,-7.127 z" />
      </g>
    </g>
    <path
       inkscape:connector-curvature="0"
       id="path3293_1_"
       d="m 248.92485,200.04292 c 1.22648,4.73066 3.51095,8.15037 5.865,14.62546 14.4261,39.6597 -43.71842,74.8872 -97.59078,74.8872 -40.40112,0 -75.086459,-18.85924 -89.911609,-45.73467 8.94505,34.27193 48.450829,60.02263 95.679369,57.7 67.67976,-3.32782 103.01482,-35.58696 97.59078,-72.44745 -1.49643,-10.18107 -3.47323,-19.7961 -11.63276,-29.03054 z"
       style="fill:#010101;fill-opacity:0.31400003" />
    <g
       id="g238"
       transform="matrix(0.83833671,0,0,0.81324873,-0.0108588,-2.9787723e-6)">
      <path
         inkscape:connector-curvature="0"
         id="path3161_1_"
         d="m 65.645,505.98 c -14.569,14.569 -38.179,14.58 -52.735,0.024 -14.555,-14.556 -14.545,-38.165 0.023,-52.734 14.569,-14.568 38.179,-14.579 52.733,-0.023 14.558,14.555 14.546,38.165 -0.021,52.733 z"
         style="fill:#ffffff;stroke:#010101;stroke-width:5.68472195;stroke-linecap:round;stroke-linejoin:round" />
      <path
         inkscape:connector-curvature="0"
         id="path241"
         d="m 72.284,459.87 c 1.805,4.381 2.806,9.178 2.806,14.211 0,20.603 -16.688,36.305 -37.273,36.305 -13.633,0 -25.55,-6.33 -32.048,-17.263 5.584,13.553 18.908,23.094 34.464,23.094 20.585,0 37.273,-16.701 37.273,-37.304 0,-6.958 -1.909,-13.468 -5.222,-19.043 z"
         style="fill:#010101;fill-opacity:0.31400003" />
    </g>
    <g
       id="g287"
       transform="matrix(0.83833671,0,0,0.81324873,-0.0108588,-2.9787723e-6)">
      <g
         id="g289">
        <g
           id="g291">
          <path
             inkscape:connector-curvature="0"
             id="path293"
             d="m 371.33,2 c -118.67,35.347 -140,102.32 -140.09,145.7 -12.735,-8.062 -27.587,-12.699 -43.453,-12.699 -15.866,0 -30.718,4.637 -43.454,12.7 -0.089,-43.375 -21.427,-110.35 -140.09,-145.7 0,0 -1.68,171.94 105.81,186.38 -4.355,10.139 -7.048,21.268 -7.668,32.994 -23.628,14.965 -38.35,36.072 -38.35,59.465 0,45.379 55.404,82.166 123.75,82.166 68.345,0 123.75,-36.787 123.75,-82.166 0,-23.393 -14.721,-44.5 -38.35,-59.465 -0.61899,-11.727 -3.312,-22.855 -7.667,-32.994 107.5,-14.432 105.82,-186.38 105.82,-186.38 z"
             style="fill:#ffffff;stroke:#010101;stroke-width:5.68472195;stroke-linecap:round;stroke-linejoin:round" />
          <path
             inkscape:connector-curvature="0"
             id="path3293"
             d="m 294.8,237.98 c 1.539,5.817 4.404,10.022 7.359,17.984 18.101,48.767 -54.856,92.084 -122.45,92.084 -50.693,0 -94.215,-23.19 -112.81,-56.237 11.225,42.142 60.795,73.806 120.05,70.95 84.922,-4.092 129.26,-43.759 122.45,-89.085 -1.879,-12.518 -4.36,-24.341 -14.597,-35.696 z"
             style="fill:#010101;fill-opacity:0.31400003" />
        </g>
        <g
           id="g296"
           style="fill:#f9d5e4;stroke:#010101;stroke-width:5.68472195;stroke-linecap:round;stroke-linejoin:round">
          <path
             inkscape:connector-curvature="0"
             style="stroke-width:5.68472195"
             id="path298"
             d="m 125.59,166.27 c 0,0 19.157,-104.02 -104.33,-140.8 0,0 13.686,150 104.33,140.8 z" />
          <path
             inkscape:connector-curvature="0"
             style="stroke-width:5.68472195"
             id="path300"
             d="m 249.98,166.27 c 0,0 -19.155,-104.02 104.34,-140.8 -10e-4,0 -13.688,150 -104.34,140.8 z" />
        </g>
      </g>
      <g
         id="g302">
        <path
           inkscape:connector-curvature="0"
           id="path3192_1_"
           d="m 171.33,292.05 c 5.379,-5.744 28.219,-6.991 32.996,0.71799 4.775,7.708 -7.174,23.692 -16.499,22.975 -9.297,-0.71701 -21.53,-18.32 -16.497,-23.693 z"
           style="fill:#f9d5e4;stroke:#010101;stroke-width:5.68472195" />
        <g
           id="g305">
          <g
             id="g307">
            <path
               inkscape:connector-curvature="0"
               id="path3177_1_"
               d="m 184.83,222.85 c 0,15.187 -12.3,27.498 -27.474,27.498 -15.173,0 -27.474,-12.312 -27.474,-27.498 0,-15.186 12.301,-27.498 27.474,-27.498 15.174,0 27.474,12.311 27.474,27.498 z"
               style="fill:#ffffff;stroke:#010101;stroke-width:5.68472195;stroke-linecap:round;stroke-linejoin:round" />
            <path
               inkscape:connector-curvature="0"
               id="path3181_1_"
               d="m 176.35,226.23 c 0,4.907 -3.974,8.884 -8.876,8.884 -4.902,0 -8.876,-3.977 -8.876,-8.884 0,-4.906 3.974,-8.884 8.876,-8.884 4.902,0 8.876,3.978 8.876,8.884 z"
               style="fill:#010101" />
          </g>
          <g
             id="g311">
            <path
               inkscape:connector-curvature="0"
               id="path3179_1_"
               d="m 245.69,222.85 c 0,15.187 -12.3,27.498 -27.473,27.498 -15.173,0 -27.474,-12.312 -27.474,-27.498 0,-15.186 12.301,-27.498 27.474,-27.498 15.173,0 27.473,12.311 27.473,27.498 z"
               style="fill:#ffffff;stroke:#010101;stroke-width:5.68472195;stroke-linecap:round;stroke-linejoin:round" />
            <path
               inkscape:connector-curvature="0"
               id="path3183_1_"
               d="m 216.95,226.23 c 0,4.907 -3.975,8.884 -8.876,8.884 -4.902,0 -8.877,-3.977 -8.877,-8.884 0,-4.906 3.975,-8.884 8.877,-8.884 4.902,0.001 8.876,3.978 8.876,8.884 z"
               style="fill:#010101" />
          </g>
        </g>
        <g
           id="g315"
           style="stroke:#010101;stroke-width:5.68472195;stroke-linejoin:round">
          <path
             inkscape:connector-curvature="0"
             id="path317"
             d="m 210.61,332.03 c -4.937,2.11 -14.624,-1.414 -21.206,-3.48 -0.46501,-0.146 -0.84001,-0.14099 -1.152,-0.033 -0.311,-0.61301 -0.836,-0.83099 -1.642,-0.48599 -4.937,2.11 -14.624,6.586 -21.206,4.52 -6.156,-1.934 1.763,16.08 3.968,17.585 2.049,1.4 11.457,1.382 13.432,-0.32999 1.265,-1.097 3.747,-7.766 5.017,-13.467 1.366,5.858 4.332,12.965 5.552,13.797 2.049,1.4 11.457,1.382 13.432,-0.32999 2.151,-1.867 8.874,-19.944 3.805,-17.776 z"
             style="fill:#ffffff;stroke-width:5.68472195" />
          <g
             id="g3178"
             style="fill:none;stroke-width:5.68472195;stroke-linecap:round">
            <path
               inkscape:connector-curvature="0"
               style="stroke-width:5.68472195"
               id="path2400"
               d="m 247.61,281.36 c 5.771,21.498 -7.014,43.595 -28.559,49.355 -10.346,2.767 -21.369,1.318 -30.644,-4.026" />
            <path
               inkscape:connector-curvature="0"
               style="stroke-width:5.68472195"
               id="path3176"
               d="m 127.96,281.36 c -5.773,21.498 7.012,43.595 28.556,49.355 10.347,2.767 21.369,1.318 30.646,-4.026" />
          </g>
        </g>
        <g
           id="g322"
           style="fill:none;stroke:#010101;stroke-width:5.68472195;stroke-linecap:round">
          <g
             style="stroke-width:5.68472195"
             id="g3188">
            <path
               inkscape:connector-curvature="0"
               style="stroke-width:5.68472195"
               id="path3182"
               d="m 243.21,293.58 c 62.572,-18.329 93.15,4.298 93.15,4.298" />
            <path
               inkscape:connector-curvature="0"
               style="stroke-width:5.68472195"
               id="path3184"
               d="m 234.23,305.87 c 44.31,-9.886 73.328,15.327 73.328,15.327" />
            <path
               inkscape:connector-curvature="0"
               style="stroke-width:5.68472195"
               id="path3186"
               d="m 230.55,319.02 c 34.087,-2.844 47.141,21.108 47.141,21.108" />
          </g>
          <g
             style="stroke-width:5.68472195"
             id="g3193">
            <path
               inkscape:connector-curvature="0"
               style="stroke-width:5.68472195"
               id="path3195"
               d="m 132.36,293.58 c -62.572,-18.329 -93.15,4.298 -93.15,4.298" />
            <path
               inkscape:connector-curvature="0"
               style="stroke-width:5.68472195"
               id="path3197"
               d="M 141.34,305.87 C 97.032,295.984 68.014,321.197 68.014,321.197" />
            <path
               inkscape:connector-curvature="0"
               style="stroke-width:5.68472195"
               id="path3199"
               d="m 145.02,319.02 c -34.09,-2.844 -47.144,21.108 -47.144,21.108" />
          </g>
        </g>
      </g>
    </g>
  </g>
</svg>
