<?xml version="1.0" encoding="UTF-8" standalone="no"?>
<svg
   xmlns:dc="http://purl.org/dc/elements/1.1/"
   xmlns:cc="http://creativecommons.org/ns#"
   xmlns:rdf="http://www.w3.org/1999/02/22-rdf-syntax-ns#"
   xmlns:svg="http://www.w3.org/2000/svg"
   xmlns="http://www.w3.org/2000/svg"
   xmlns:sodipodi="http://sodipodi.sourceforge.net/DTD/sodipodi-0.dtd"
   xmlns:inkscape="http://www.inkscape.org/namespaces/inkscape"
   width="332"
   height="434"
   id="svg2"
   version="1.1"
   inkscape:version="0.91 r13725"
   sodipodi:docname="tiger.svg">
  <metadata
     id="metadata20">
    <rdf:RDF>
      <cc:Work
         rdf:about="">
        <dc:format>image/svg+xml</dc:format>
        <dc:type
           rdf:resource="http://purl.org/dc/dcmitype/StillImage" />
        <dc:title></dc:title>
      </cc:Work>
    </rdf:RDF>
  </metadata>
  <defs
     id="defs18">
    <filter
       id="filter4138-8"
       x="-0.1"
       y="-0.1"
       width="1.2"
       height="1.2"
       style="color-interpolation-filters:sRGB">
      <feTurbulence
         id="feTurbulence4140-8"
         result="result1"
         numOctaves="3"
         baseFrequency="1"
         type="fractalNoise"
         seed="50" />
      <feColorMatrix
         id="feColorMatrix4142-7"
         result="result0"
         in="SourceGraphic"
         type="luminanceToAlpha" />
      <feColorMatrix
         id="feColorMatrix4144-5"
         values="1 0 0 0 0 0 1 0 0 0 0 0 1 0 0 0 0 0 0.5 0 "
         result="result2" />
      <feComposite
         id="feComposite4146-9"
         in2="result2"
         in="result1"
         operator="over"
         result="result3" />
      <feColorMatrix
         id="feColorMatrix4148-5"
         values="1 0 0 0 0 0 1 0 0 0 0 0 1 0 0 0 0 0 5 -3.2"
         result="result91" />
      <feComposite
         id="feComposite4150-7"
         result="result93"
         k1="1.5"
         operator="arithmetic"
         in2="result91"
         k2="0"
         k3="0"
         k4="0" />
      <feComposite
         id="feComposite4152-4"
         result="result4"
         operator="out"
         in="SourceGraphic"
         in2="result93" />
      <feComposite
         id="feComposite4154-9"
         k1="1"
         k2="0.5"
         operator="arithmetic"
         in2="result4"
         k3="0"
         k4="0" />
      <feDisplacementMap
         id="feDisplacementMap4156-3"
         result="result92"
         in2="result1"
         yChannelSelector="A"
         xChannelSelector="R"
         scale="15" />
    </filter>
    <filter
       id="filter4138-8-4"
       x="-0.1"
       y="-0.1"
       width="1.2"
       height="1.2"
       style="color-interpolation-filters:sRGB">
      <feTurbulence
         id="feTurbulence4140-8-1"
         result="result1"
         numOctaves="3"
         baseFrequency="1"
         type="fractalNoise"
         seed="50" />
      <feColorMatrix
         id="feColorMatrix4142-7-1"
         result="result0"
         in="SourceGraphic"
         type="luminanceToAlpha" />
      <feColorMatrix
         id="feColorMatrix4144-5-3"
         values="1 0 0 0 0 0 1 0 0 0 0 0 1 0 0 0 0 0 0.5 0 "
         result="result2" />
      <feComposite
         id="feComposite4146-9-1"
         in2="result2"
         in="result1"
         operator="over"
         result="result3" />
      <feColorMatrix
         id="feColorMatrix4148-5-3"
         values="1 0 0 0 0 0 1 0 0 0 0 0 1 0 0 0 0 0 5 -3.2"
         result="result91" />
      <feComposite
         id="feComposite4150-7-6"
         result="result93"
         k1="1.5"
         operator="arithmetic"
         in2="result91"
         k2="0"
         k3="0"
         k4="0" />
      <feComposite
         id="feComposite4152-4-1"
         result="result4"
         operator="out"
         in="SourceGraphic"
         in2="result93" />
      <feComposite
         id="feComposite4154-9-4"
         k1="1"
         k2="0.5"
         operator="arithmetic"
         in2="result4"
         k3="0"
         k4="0" />
      <feDisplacementMap
         id="feDisplacementMap4156-3-5"
         result="result92"
         in2="result1"
         yChannelSelector="A"
         xChannelSelector="R"
         scale="15" />
    </filter>
    <filter
       id="filter4138"
       x="-0.1"
       y="-0.1"
       width="1.2"
       height="1.2"
       style="color-interpolation-filters:sRGB">
      <feTurbulence
         id="feTurbulence4140"
         result="result1"
         numOctaves="3"
         baseFrequency="1"
         type="fractalNoise"
         seed="50" />
      <feColorMatrix
         id="feColorMatrix4142"
         result="result0"
         in="SourceGraphic"
         type="luminanceToAlpha" />
      <feColorMatrix
         id="feColorMatrix4144"
         values="1 0 0 0 0 0 1 0 0 0 0 0 1 0 0 0 0 0 0.5 0 "
         result="result2" />
      <feComposite
         id="feComposite4146"
         in2="result2"
         in="result1"
         operator="over"
         result="result3" />
      <feColorMatrix
         id="feColorMatrix4148"
         values="1 0 0 0 0 0 1 0 0 0 0 0 1 0 0 0 0 0 5 -3.2"
         result="result91" />
      <feComposite
         id="feComposite4150"
         result="result93"
         k1="1.5"
         operator="arithmetic"
         in2="result91"
         k2="0"
         k3="0"
         k4="0" />
      <feComposite
         id="feComposite4152"
         result="result4"
         operator="out"
         in="SourceGraphic"
         in2="result93" />
      <feComposite
         id="feComposite4154"
         k1="1"
         k2="0.5"
         operator="arithmetic"
         in2="result4"
         k3="0"
         k4="0" />
      <feDisplacementMap
         id="feDisplacementMap4156"
         result="result92"
         in2="result1"
         yChannelSelector="A"
         xChannelSelector="R"
         scale="15" />
    </filter>
    <filter
       id="filter4138-4"
       x="-0.1"
       y="-0.1"
       width="1.2"
       height="1.2"
       style="color-interpolation-filters:sRGB">
      <feTurbulence
         id="feTurbulence4140-9"
         result="result1"
         numOctaves="3"
         baseFrequency="1"
         type="fractalNoise"
         seed="50" />
      <feColorMatrix
         id="feColorMatrix4142-72"
         result="result0"
         in="SourceGraphic"
         type="luminanceToAlpha" />
      <feColorMatrix
         id="feColorMatrix4144-8"
         values="1 0 0 0 0 0 1 0 0 0 0 0 1 0 0 0 0 0 0.5 0 "
         result="result2" />
      <feComposite
         id="feComposite4146-93"
         in2="result2"
         in="result1"
         operator="over"
         result="result3" />
      <feColorMatrix
         id="feColorMatrix4148-9"
         values="1 0 0 0 0 0 1 0 0 0 0 0 1 0 0 0 0 0 5 -3.2"
         result="result91" />
      <feComposite
         id="feComposite4150-6"
         result="result93"
         k1="1.5"
         operator="arithmetic"
         in2="result91"
         k2="0"
         k3="0"
         k4="0" />
      <feComposite
         id="feComposite4152-9"
         result="result4"
         operator="out"
         in="SourceGraphic"
         in2="result93" />
      <feComposite
         id="feComposite4154-6"
         k1="1"
         k2="0.5"
         operator="arithmetic"
         in2="result4"
         k3="0"
         k4="0" />
      <feDisplacementMap
         id="feDisplacementMap4156-8"
         result="result92"
         in2="result1"
         yChannelSelector="A"
         xChannelSelector="R"
         scale="15" />
    </filter>
    <clipPath
       id="clipPath3683">
      <path
         inkscape:connector-curvature="0"
         id="path40-0"
         d="m 248.974,113.099 12.447,0 0,-19.4291 -12.447,0 0,19.4291 z" />
    </clipPath>
    <clipPath
       id="clipPath3703">
      <path
         inkscape:connector-curvature="0"
         id="path37-0"
         d="m 261.257,79.6387 5.806,0 0,-8.6084 -5.806,0 0,8.6084 z" />
    </clipPath>
    <clipPath
       id="clipPath3719">
      <path
         inkscape:connector-curvature="0"
         id="path34-4"
         d="m 262.325,69.833 3.153,0 0,-3.1523 -3.153,0 0,3.1523 z" />
    </clipPath>
    <clipPath
       id="clipPath3739">
      <path
         inkscape:connector-curvature="0"
         id="path31-3"
         d="m 293.42,79.6387 5.806,0 0,-8.6084 -5.806,0 0,8.6084 z" />
    </clipPath>
    <clipPath
       id="clipPath3755">
      <path
         inkscape:connector-curvature="0"
         id="path28-7"
         d="m 294.489,69.833 3.152,0 0,-3.1523 -3.152,0 0,3.1523 z" />
    </clipPath>
    <clipPath
       id="clipPath3771">
      <path
         inkscape:connector-curvature="0"
         id="path25-1"
         d="m 280.582,58.7637 3.656,0 0,-9.2285 -3.656,0 0,9.2285 z" />
    </clipPath>
    <clipPath
       id="clipPath3791">
      <path
         inkscape:connector-curvature="0"
         id="path22-9"
         d="m 222.104,108.127 14.438,0 0,-22.1348 -14.438,0 0,22.1348 z" />
    </clipPath>
    <clipPath
       id="clipPath3807">
      <path
         inkscape:connector-curvature="0"
         id="path19-2"
         d="m 233.618,71.3477 8.08,0 0,-9.7227 -8.08,0 0,9.7227 z" />
    </clipPath>
    <clipPath
       id="clipPath3823">
      <path
         inkscape:connector-curvature="0"
         id="path16-2"
         d="m 235.105,50.6084 6.292,0 0,-6.9043 -6.292,0 0,6.9043 z" />
    </clipPath>
    <clipPath
       id="clipPath3839">
      <path
         inkscape:connector-curvature="0"
         id="path13-4"
         d="m 240.804,44.6299 22.052,0 0,-27.4121 -22.052,0 0,27.4121 z" />
    </clipPath>
    <clipPath
       id="clipPath3855">
      <path
         inkscape:connector-curvature="0"
         id="path10-8"
         d="m 235.568,61.5654 7.432,0 0,-7.9189 -7.432,0 0,7.9189 z" />
    </clipPath>
    <clipPath
       id="clipPath3871">
      <path
         inkscape:connector-curvature="0"
         id="path7-6"
         d="m 236.299,93.3604 17.909,0 0,-22.6583 -17.909,0 0,22.6583 z" />
    </clipPath>
  </defs>
  <sodipodi:namedview
     pagecolor="#ffffff"
     bordercolor="#666666"
     borderopacity="1"
     objecttolerance="10"
     gridtolerance="10"
     guidetolerance="10"
     inkscape:pageopacity="0"
     inkscape:pageshadow="2"
     inkscape:window-width="1291"
     inkscape:window-height="795"
     id="namedview16"
     showgrid="false"
     inkscape:zoom="1.2808977"
     inkscape:cx="212.26165"
     inkscape:cy="215.96928"
     inkscape:window-x="12"
     inkscape:window-y="53"
     inkscape:window-maximized="0"
     inkscape:current-layer="svg2"
     fit-margin-top="0"
     fit-margin-left="0"
     fit-margin-right="0"
     fit-margin-bottom="0" />
  <g
     id="g4278"
     transform="translate(-33.421883,4.6530993)">
    <rect
       y="-1.4631635"
       x="44.286201"
       height="424"
       width="317.41281"
       id="rect4450"
       style="opacity:1;fill:#ffffff;fill-opacity:1;fill-rule:nonzero;stroke:none;stroke-width:7.99999952;stroke-miterlimit:4;stroke-dasharray:none;stroke-opacity:1" />
    <g
       transform="matrix(0.52334098,0,0,0.51547408,8.6393114,-56.678842)"
       id="g4403">
      <rect
         transform="matrix(0.99815136,0,0,0.25546737,7.8004281,-25.859884)"
         y="498.07648"
         x="40"
         height="97.14286"
         width="631.42859"
         id="rect4136-0"
         style="opacity:1;fill:#ffdd55;fill-opacity:1;fill-rule:nonzero;stroke:none;stroke-width:3.79866695;stroke-miterlimit:4;stroke-dasharray:none;stroke-opacity:1;filter:url(#filter4138-8)" />
      <rect
         transform="matrix(0.99815136,0,0,0.25546737,10.65756,789.85436)"
         y="498.07648"
         x="40"
         height="97.14286"
         width="631.42859"
         id="rect4136-0-4"
         style="opacity:1;fill:#ffdd55;fill-opacity:1;fill-rule:nonzero;stroke:none;stroke-width:3.79866695;stroke-miterlimit:4;stroke-dasharray:none;stroke-opacity:1;filter:url(#filter4138-8-4)" />
      <g
         id="g4368">
        <rect
           style="opacity:1;fill:#ffdd55;fill-opacity:1;fill-rule:nonzero;stroke:none;stroke-width:3.79866695;stroke-miterlimit:4;stroke-dasharray:none;stroke-opacity:1;filter:url(#filter4138)"
           id="rect4136"
           width="631.42859"
           height="97.14286"
           x="40"
           y="498.07648"
           transform="matrix(0.04226428,0,0,8.3623635,42.108877,-4044.6205)" />
        <rect
           style="opacity:1;fill:#ffdd55;fill-opacity:1;fill-rule:nonzero;stroke:none;stroke-width:3.79866695;stroke-miterlimit:4;stroke-dasharray:none;stroke-opacity:1;filter:url(#filter4138-4)"
           id="rect4136-5"
           width="631.42859"
           height="97.14286"
           x="40"
           y="498.07648"
           transform="matrix(0.04226428,0,0,8.3623635,656.39457,-4044.6206)" />
      </g>
    </g>
  </g>
  <g
     id="g4356"
     transform="matrix(1.4648307,0,0,1.7186725,22.773158,102.64725)">
    <g
       transform="matrix(1.25,0,0,-1.25,65.35393,34.62063)"
       id="g42">
      <path
         inkscape:connector-curvature="0"
         d="m 0,0 c 0,0 -8.771,25.584 -42.396,19.005 0,0 -8.771,-23.393 34.355,-34.357 0,0 16.082,0 8.041,15.352"
         id="path44-4"
         style="fill:#fcdf60" />
    </g>
    <g
       transform="matrix(1.25,0,0,-1.25,122.36932,34.62063)"
       id="g46">
      <path
         inkscape:connector-curvature="0"
         d="m 0,0 c 0,0 8.772,25.584 42.399,19.005 0,0 8.771,-23.393 -34.359,-34.357 0,0 -16.081,0 -8.04,15.352"
         id="path48-9"
         style="fill:#fcdf60" />
    </g>
    <g
       transform="matrix(1.25,0,0,-1.25,158.24707,71.88013)"
       id="g50">
      <path
         inkscape:connector-curvature="0"
         d="m 0,0 c 0,-28.26 -22.908,-51.169 -51.167,-51.169 -28.259,0 -51.169,22.909 -51.169,51.169 0,28.26 22.909,51.167 51.169,51.167 C -22.907,51.167 0,28.26 0,0"
         id="path52"
         style="fill:#fcdf60" />
    </g>
    <g
       transform="matrix(1.25,0,0,-1.25,103.81344,105.74978)"
       id="g54">
      <path
         inkscape:connector-curvature="0"
         d="M 0,0 C 0,0 4.44,-20.296 8.095,1.088 8.095,1.088 4.514,-1.087 0,0"
         id="path56"
         style="fill:#ffffff" />
    </g>
    <g
       transform="matrix(1.25,0,0,-1.25,73.50219,106.23798)"
       id="g58">
      <path
         inkscape:connector-curvature="0"
         d="M 0,0 C 0,0 4.309,-21.039 7.964,0.345 7.964,0.345 4.515,-1.088 0,0"
         id="path60"
         style="fill:#ffffff" />
    </g>
    <g
       transform="matrix(1.25,0,0,-1.25,100.37531,45.68625)"
       id="g62">
      <path
         inkscape:connector-curvature="0"
         d="m 0,0 c 0,0 21.766,13.392 33.058,13.392 0,0 -5.442,13.409 0,23.157 C 33.058,36.549 7.795,22.415 0,0"
         id="path64"
         style="fill:#292929" />
    </g>
    <g
       transform="matrix(1.25,0,0,-1.25,100.68231,86.5005)"
       id="g66">
      <path
         inkscape:connector-curvature="0"
         d="m 0,0 c 0,-2.827 -2.29,0.484 -5.116,0.484 -2.826,0 -5.117,-3.311 -5.117,-0.484 0,2.827 2.29,10.723 5.117,10.723 C -2.289,10.723 0,2.827 0,0"
         id="path68-8"
         style="fill:#292929" />
    </g>
    <g
       transform="matrix(1.25,0,0,-1.25,156.34757,56.38688)"
       id="g70">
      <path
         inkscape:connector-curvature="0"
         d="M 0,0 -16.512,-7.521 1.471,-14.368 C 1.471,-14.368 1.817,-1.815 0,0"
         id="path72"
         style="fill:#292929" />
    </g>
    <g
       transform="matrix(1.25,0,0,-1.25,156.34757,83.456)"
       id="g74">
      <path
         inkscape:connector-curvature="0"
         d="M 0,0 -16.024,2.439 -2.635,-10.954 0,0 Z"
         id="path76-3"
         style="fill:#292929" />
    </g>
    <g
       transform="matrix(1.25,0,0,-1.25,106.09982,9.02725)"
       id="g78">
      <path
         inkscape:connector-curvature="0"
         d="m 0,0 -6.038,-13.245 -3.412,14.13 -6.821,-14.13 -4.079,12.957 c 0,0 15.876,1.337 20.35,0.288"
         id="path80"
         style="fill:#292929" />
    </g>
    <g
       transform="matrix(1.25,0,0,-1.25,31.37444,56.38688)"
       id="g82">
      <path
         inkscape:connector-curvature="0"
         d="m 0,0 16.514,-7.521 -17.983,-6.847 c 0,0 -0.346,12.553 1.469,14.368"
         id="path84"
         style="fill:#292929" />
    </g>
    <g
       transform="matrix(1.25,0,0,-1.25,31.37444,83.456)"
       id="g86">
      <path
         inkscape:connector-curvature="0"
         d="M 0,0 16.025,2.439 2.636,-10.954 0,0 Z"
         id="path88-7"
         style="fill:#292929" />
    </g>
    <g
       transform="matrix(1.25,0,0,-1.25,87.34918,45.68625)"
       id="g90">
      <path
         inkscape:connector-curvature="0"
         d="m 0,0 c 0,0 -21.768,13.392 -33.058,13.392 0,0 5.443,13.409 0,23.157 0,0 25.263,-14.134 33.058,-36.549"
         id="path92"
         style="fill:#292929" />
    </g>
    <g
       transform="matrix(1.25,0,0,-1.25,128.09569,70.967)"
       id="g94">
      <path
         inkscape:connector-curvature="0"
         d="M 0,0 C 0,0 18.273,19.736 43.858,16.447"
         id="path96"
         style="fill:none;stroke:#292929;stroke-width:0.46070683" />
    </g>
    <g
       transform="matrix(1.25,0,0,-1.25,129.30531,80.57638)"
       id="g98">
      <path
         inkscape:connector-curvature="0"
         d="M 0,0 C 0,0 23.04,13.881 46.702,3.613"
         id="path100-3"
         style="fill:none;stroke:#292929;stroke-width:0.46070683" />
    </g>
    <g
       transform="matrix(1.25,0,0,-1.25,129.85469,90.56175)"
       id="g102">
      <path
         inkscape:connector-curvature="0"
         d="M 0,0 C 0,0 26.086,6.559 45.724,-10.165"
         id="path104"
         style="fill:none;stroke:#292929;stroke-width:0.46070683" />
    </g>
    <g
       transform="matrix(1.25,0,0,-1.25,-261.23906,148.07638)"
       id="g106">
      <g
         clip-path="url(#clipPath3683)"
         id="g108"
         style="opacity:0.5">
        <g
           transform="translate(250.3066,113.0986)"
           id="g110">
          <path
             inkscape:connector-curvature="0"
             d="m 0,0 c 0,0 1.828,-12.703 -1.333,-15.248 0,0 9.618,-1.273 10.959,-4.181 0,0 3.35,7.308 0,10.658 L 0,0 Z"
             id="path112-6"
             style="fill:#ffffff" />
        </g>
      </g>
    </g>
    <g
       transform="matrix(1.25,0,0,-1.25,61.68206,56.70063)"
       id="g114">
      <path
         inkscape:connector-curvature="0"
         d="m 0,0 c 0,-4.897 3.975,-8.869 8.876,-8.869 4.895,0 8.87,3.972 8.87,8.869 0,4.897 -3.975,8.875 -8.87,8.875 C 3.975,8.875 0,4.9 0,0"
         id="path116"
         style="fill:#292929" />
    </g>
    <g
       transform="matrix(1.25,0,0,-1.25,-261.23906,148.07638)"
       id="g118">
      <g
         clip-path="url(#clipPath3703)"
         id="g120"
         style="opacity:0.5">
        <g
           transform="translate(265.4775,79.6387)"
           id="g122">
          <path
             inkscape:connector-curvature="0"
             d="m 0,0 c -0.984,0 -4.497,-1.564 -4.203,-7.469 0,0 1.522,-2.563 2.802,0 1.282,2.567 -0.229,3.386 2.801,5.254 C 1.4,-2.215 2.336,0 0,0"
             id="path124-0"
             style="fill:#ffffff" />
        </g>
      </g>
    </g>
    <g
       transform="matrix(1.25,0,0,-1.25,-261.23906,148.07638)"
       id="g126">
      <g
         clip-path="url(#clipPath3719)"
         id="g128"
         style="opacity:0.5">
        <g
           transform="translate(265.4775,68.2568)"
           id="g130">
          <path
             inkscape:connector-curvature="0"
             d="m 0,0 c 0,-0.873 -0.708,-1.576 -1.576,-1.576 -0.868,0 -1.576,0.703 -1.576,1.576 0,0.873 0.706,1.576 1.576,1.576 C -0.706,1.576 0,0.869 0,0"
             id="path132"
             style="fill:#ffffff" />
        </g>
      </g>
    </g>
    <g
       transform="matrix(1.25,0,0,-1.25,101.88657,56.70063)"
       id="g134">
      <path
         inkscape:connector-curvature="0"
         d="m 0,0 c 0,-4.897 3.975,-8.869 8.876,-8.869 4.895,0 8.87,3.972 8.87,8.869 0,4.897 -3.975,8.875 -8.87,8.875 C 3.975,8.875 0,4.9 0,0"
         id="path136-9"
         style="fill:#292929" />
    </g>
    <g
       transform="matrix(1.25,0,0,-1.25,-261.23906,148.07638)"
       id="g138">
      <g
         clip-path="url(#clipPath3739)"
         id="g140"
         style="opacity:0.5">
        <g
           transform="translate(297.6411,79.6387)"
           id="g142">
          <path
             inkscape:connector-curvature="0"
             d="m 0,0 c -0.985,0 -4.497,-1.564 -4.204,-7.469 0,0 1.523,-2.563 2.802,0 1.281,2.567 -0.228,3.386 2.801,5.254 C 1.399,-2.215 2.335,0 0,0"
             id="path144"
             style="fill:#ffffff" />
        </g>
      </g>
    </g>
    <g
       transform="matrix(1.25,0,0,-1.25,-261.23906,148.07638)"
       id="g146">
      <g
         clip-path="url(#clipPath3755)"
         id="g148"
         style="opacity:0.5">
        <g
           transform="translate(297.6411,68.2568)"
           id="g150">
          <path
             inkscape:connector-curvature="0"
             d="m 0,0 c 0,-0.873 -0.708,-1.576 -1.576,-1.576 -0.868,0 -1.576,0.703 -1.576,1.576 0,0.873 0.706,1.576 1.576,1.576 C -0.706,1.576 0,0.869 0,0"
             id="path152"
             style="fill:#ffffff" />
        </g>
      </g>
    </g>
    <g
       transform="matrix(1.25,0,0,-1.25,-261.23906,148.07638)"
       id="g154">
      <g
         clip-path="url(#clipPath3771)"
         id="g156"
         style="opacity:0.5">
        <g
           transform="translate(284.2378,58.7637)"
           id="g158">
          <path
             inkscape:connector-curvature="0"
             d="m 0,0 c 0,0 -3.656,-3.838 -3.656,-9.229 0,0 1.554,0.822 2.286,0.822 0,0 -1.462,1.736 1.37,8.407"
             id="path160"
             style="fill:#ffffff" />
        </g>
      </g>
    </g>
    <g
       transform="matrix(1.25,0,0,-1.25,65.51268,103.99798)"
       id="g162">
      <path
         inkscape:connector-curvature="0"
         d="M 0,0 C -0.084,0.034 -0.114,0.047 -0.208,0.131 -0.896,0.679 -1.665,1.719 0.373,1.73 0.41,1.731 0.581,1.72 0.66,1.696 0.832,1.602 8.883,-1.53 17.32,-2.354 c 8.49,-1.223 16.576,1.385 16.492,1.46 0.06,-0.175 5.098,1.742 8.245,3.983 C 47.026,7.285 45.522,5.296 42.6,2.222 43.218,2.148 34.253,-3.43 33.927,-2.754 34.016,-2.908 25.499,-5.376 16.892,-4.14 8.313,-3.257 0.207,-0.106 0,0"
         id="path164"
         style="fill:#292929" />
    </g>
    <g
       transform="matrix(1.25,0,0,-1.25,-261.23906,148.07638)"
       id="g166">
      <g
         clip-path="url(#clipPath3791)"
         id="g168"
         style="opacity:0.5">
        <g
           transform="translate(229.7793,107.9229)"
           id="g170">
          <path
             inkscape:connector-curvature="0"
             d="m 0,0 c 0,0 -8.223,-9.321 6.763,-21.931 0,0 -12.793,3.108 -14.438,21.199 0,0 5.483,1.461 7.675,0.732"
             id="path172"
             style="fill:#ffffff" />
        </g>
      </g>
    </g>
    <g
       transform="matrix(1.25,0,0,-1.25,-261.23906,148.07638)"
       id="g174">
      <g
         clip-path="url(#clipPath3807)"
         id="g176"
         style="opacity:0.5">
        <g
           transform="translate(234.3091,71.3477)"
           id="g178">
          <path
             inkscape:connector-curvature="0"
             d="M 0,0 C 0,0 -1.191,-8.915 -0.445,-9.66 0.301,-10.405 16.312,-4.289 0.3,-0.4"
             id="path180"
             style="fill:#ffffff" />
        </g>
      </g>
    </g>
    <g
       transform="matrix(1.25,0,0,-1.25,-261.23906,148.07638)"
       id="g182">
      <g
         clip-path="url(#clipPath3823)"
         id="g184"
         style="opacity:0.5">
        <g
           transform="translate(235.1055,50.6084)"
           id="g186">
          <path
             inkscape:connector-curvature="0"
             d="M 0,0 C 0,0 1.134,-6.535 1.822,-6.893 2.51,-7.251 12.424,0.589 0.3,-0.217"
             id="path188"
             style="fill:#ffffff" />
        </g>
      </g>
    </g>
    <g
       transform="matrix(1.25,0,0,-1.25,-261.23906,148.07638)"
       id="g190">
      <g
         clip-path="url(#clipPath3839)"
         id="g192"
         style="opacity:0.5">
        <g
           transform="translate(240.8042,39.2705)"
           id="g194">
          <path
             inkscape:connector-curvature="0"
             d="m 0,0 c 0,0 7.316,-15.082 22.052,-22.053 0,0 -15.359,13.073 -17.177,27.412 L 0,0 Z"
             id="path196"
             style="fill:#ffffff" />
        </g>
      </g>
    </g>
    <g
       transform="matrix(1.25,0,0,-1.25,-261.23906,148.07638)"
       id="g198">
      <g
         clip-path="url(#clipPath3855)"
         id="g200"
         style="opacity:0.5">
        <g
           transform="translate(235.5679,57.7891)"
           id="g202">
          <path
             inkscape:connector-curvature="0"
             d="M 0,0 0.488,-4.143 7.433,-2.315 6.701,3.776 0,0 Z"
             id="path204"
             style="fill:#ffffff" />
        </g>
      </g>
    </g>
    <g
       transform="matrix(1.25,0,0,-1.25,-261.23906,148.07638)"
       id="g206">
      <g
         clip-path="url(#clipPath3871)"
         id="g208"
         style="opacity:0.5">
        <g
           transform="translate(236.2993,73.626)"
           id="g210">
          <path
             inkscape:connector-curvature="0"
             d="m 0,0 c 0,0 5.239,16.447 11.087,19.005 5.848,2.558 6.821,-2.436 6.821,-2.436 0,0 -8.768,-6.821 -11.085,-19.493 L 0,0 Z"
             id="path212"
             style="fill:#ffffff" />
        </g>
      </g>
    </g>
    <g
       transform="matrix(1.25,0,0,-1.25,59.7643,70.967)"
       id="g214">
      <path
         inkscape:connector-curvature="0"
         d="M 0,0 C 0,0 -18.273,19.736 -43.858,16.447"
         id="path216"
         style="fill:none;stroke:#292929;stroke-width:0.46070683" />
    </g>
    <g
       transform="matrix(1.25,0,0,-1.25,58.55469,80.57638)"
       id="g218">
      <path
         inkscape:connector-curvature="0"
         d="M 0,0 C 0,0 -23.04,13.881 -46.702,3.613"
         id="path220"
         style="fill:none;stroke:#292929;stroke-width:0.46070683" />
    </g>
    <g
       transform="matrix(1.25,0,0,-1.25,58.0053,90.56175)"
       id="g222">
      <path
         inkscape:connector-curvature="0"
         d="M 0,0 C 0,0 -26.086,6.559 -45.724,-10.165"
         id="path224"
         style="fill:none;stroke:#292929;stroke-width:0.46070683" />
    </g>
  </g>
</svg>
